<svg width="20" height="20" viewBox="0 0 20 20" fill="none" xmlns="http://www.w3.org/2000/svg">
<g id="Frame 4">
<path id="Vector" d="M16.3011 12.7327C15.3327 11.9798 15.1842 11.7391 14.5361 8.30376C13.9857 5.38594 12.7792 4.47879 11.2811 4.00454C11.3642 3.82464 11.4139 3.6256 11.4139 3.41393C11.4139 3.03894 11.265 2.6793 10.9998 2.41413C10.7346 2.14897 10.375 2 9.99999 2C9.62499 2 9.26535 2.14897 9.00018 2.41413C8.73502 2.6793 8.58605 3.03894 8.58605 3.41393C8.58605 3.6256 8.63581 3.82426 8.71887 4.00454C7.22111 4.47917 6.01425 5.38632 5.46384 8.30376C4.81582 11.7391 4.66769 11.9798 3.69929 12.7324C2.69874 13.5101 2.73089 15.3007 4.06215 15.3007H8.06741C8.08272 16.3571 8.94049 17.2088 9.99999 17.2088C11.0595 17.2088 11.9176 16.3568 11.9326 15.3011H15.9374C17.2691 15.3011 17.3012 13.5097 16.3011 12.7327Z" stroke="#565757" stroke-width="1.5" stroke-linecap="round" stroke-linejoin="round"/>
</g>
</svg>
