<svg width="20" height="20" viewBox="0 0 20 20" fill="none" xmlns="http://www.w3.org/2000/svg">
<g id="solar:heart-linear">
<path id="Vector" d="M10.0001 4.58332L9.55008 5.01666C9.60838 5.07714 9.67828 5.12526 9.7556 5.15812C9.83292 5.19098 9.91607 5.20792 10.0001 5.20792C10.0841 5.20792 10.1672 5.19098 10.2446 5.15812C10.3219 5.12526 10.3918 5.07714 10.4501 5.01666L10.0001 4.58332ZM7.85508 15.2683C6.59175 14.2725 5.21091 13.3 4.11508 12.0667C3.04175 10.8567 2.29175 9.44499 2.29175 7.61416H1.04175C1.04175 9.83582 1.96675 11.5308 3.18091 12.8967C4.37258 14.2383 5.89258 15.3133 7.08091 16.25L7.85591 15.2683H7.85508ZM2.29175 7.61416C2.29175 5.82249 3.30425 4.31915 4.68675 3.68666C6.03008 3.07249 7.83508 3.23499 9.55008 5.01666L10.4501 4.15082C8.41675 2.03666 6.05341 1.68749 4.16675 2.54999C2.32175 3.39416 1.04175 5.35416 1.04175 7.61416H2.29175ZM7.08091 16.25C7.50841 16.5867 7.96675 16.945 8.43091 17.2167C8.89508 17.4875 9.42508 17.7083 10.0001 17.7083V16.4583C9.74175 16.4583 9.43841 16.3583 9.06175 16.1375C8.68425 15.9175 8.29341 15.6142 7.85508 15.2683L7.08091 16.25ZM12.9192 16.25C14.1076 15.3125 15.6276 14.2392 16.8192 12.8967C18.0334 11.53 18.9584 9.83582 18.9584 7.61416H17.7084C17.7084 9.44499 16.9584 10.8567 15.8851 12.0667C14.7892 13.3 13.4084 14.2725 12.1451 15.2683L12.9192 16.25ZM18.9584 7.61416C18.9584 5.35416 17.6792 3.39416 15.8334 2.54999C13.9467 1.68749 11.5851 2.03666 9.55008 4.14999L10.4501 5.01666C12.1651 3.23582 13.9701 3.07249 15.3134 3.68666C16.6959 4.31915 17.7084 5.82166 17.7084 7.61416H18.9584ZM12.1451 15.2683C11.7067 15.6142 11.3159 15.9175 10.9384 16.1375C10.5617 16.3575 10.2584 16.4583 10.0001 16.4583V17.7083C10.5751 17.7083 11.1051 17.4875 11.5692 17.2167C12.0342 16.945 12.4917 16.5867 12.9192 16.25L12.1451 15.2683Z" fill="#565757"/>
</g>
</svg>
