<svg width="19" height="18" viewBox="0 0 19 18" fill="none" xmlns="http://www.w3.org/2000/svg">
<g id="Vector">
<path d="M13.4771 11.8898L18.273 16.4332L17.3462 17.3113L12.5111 12.7306L12.2032 12.4389L11.8652 12.6951C11.3211 13.1075 10.6904 13.4379 9.96851 13.6834C9.25595 13.9257 8.4936 14.0484 7.67834 14.0484C5.65345 14.0484 3.96247 13.389 2.57413 12.0737C1.18613 10.7587 0.5 9.16882 0.5 7.27421C0.5 5.37961 1.18613 3.78969 2.57413 2.47474C3.96247 1.15947 5.65345 0.5 7.67834 0.5C9.70323 0.5 11.3947 1.15947 12.7838 2.47483C14.1709 3.78972 14.8567 5.37961 14.8567 7.27421C14.8567 8.03773 14.7287 8.75145 14.4757 9.4192C14.2189 10.097 13.8727 10.6906 13.439 11.2042L13.1343 11.565L13.4771 11.8898ZM11.788 11.205L11.7883 11.2048C12.9191 10.1327 13.4941 8.81307 13.4941 7.27421C13.4941 5.73536 12.9191 4.41576 11.7883 3.34365L11.788 3.34338C10.6574 2.27309 9.27756 1.73822 7.67834 1.73822C6.07911 1.73822 4.69929 2.27309 3.56867 3.34338L3.5684 3.34365C2.43759 4.41576 1.86257 5.73536 1.86257 7.27421C1.86257 8.81307 2.43759 10.1327 3.5684 11.2048L3.56867 11.205C4.69929 12.2753 6.07911 12.8102 7.67834 12.8102C9.27756 12.8102 10.6574 12.2753 11.788 11.205Z" fill="#0069FF"/>
<path d="M13.4771 11.8898L18.273 16.4332L17.3462 17.3113L12.5111 12.7306L12.2032 12.4389L11.8652 12.6951C11.3211 13.1075 10.6904 13.4379 9.96851 13.6834C9.25595 13.9257 8.4936 14.0484 7.67834 14.0484C5.65345 14.0484 3.96247 13.389 2.57413 12.0737C1.18613 10.7587 0.5 9.16882 0.5 7.27421C0.5 5.37961 1.18613 3.78969 2.57413 2.47474C3.96247 1.15947 5.65345 0.5 7.67834 0.5C9.70323 0.5 11.3947 1.15947 12.7838 2.47483C14.1709 3.78972 14.8567 5.37961 14.8567 7.27421C14.8567 8.03773 14.7287 8.75145 14.4757 9.4192C14.2189 10.097 13.8727 10.6906 13.439 11.2042L13.1343 11.565L13.4771 11.8898ZM11.788 11.205L11.7883 11.2048C12.9191 10.1327 13.4941 8.81307 13.4941 7.27421C13.4941 5.73536 12.9191 4.41576 11.7883 3.34365L11.788 3.34338C10.6574 2.27309 9.27756 1.73822 7.67834 1.73822C6.07911 1.73822 4.69929 2.27309 3.56867 3.34338L3.5684 3.34365C2.43759 4.41576 1.86257 5.73536 1.86257 7.27421C1.86257 8.81307 2.43759 10.1327 3.5684 11.2048L3.56867 11.205C4.69929 12.2753 6.07911 12.8102 7.67834 12.8102C9.27756 12.8102 10.6574 12.2753 11.788 11.205Z" stroke="#333333"/>
<path d="M13.4771 11.8898L18.273 16.4332L17.3462 17.3113L12.5111 12.7306L12.2032 12.4389L11.8652 12.6951C11.3211 13.1075 10.6904 13.4379 9.96851 13.6834C9.25595 13.9257 8.4936 14.0484 7.67834 14.0484C5.65345 14.0484 3.96247 13.389 2.57413 12.0737C1.18613 10.7587 0.5 9.16882 0.5 7.27421C0.5 5.37961 1.18613 3.78969 2.57413 2.47474C3.96247 1.15947 5.65345 0.5 7.67834 0.5C9.70323 0.5 11.3947 1.15947 12.7838 2.47483C14.1709 3.78972 14.8567 5.37961 14.8567 7.27421C14.8567 8.03773 14.7287 8.75145 14.4757 9.4192C14.2189 10.097 13.8727 10.6906 13.439 11.2042L13.1343 11.565L13.4771 11.8898ZM11.788 11.205L11.7883 11.2048C12.9191 10.1327 13.4941 8.81307 13.4941 7.27421C13.4941 5.73536 12.9191 4.41576 11.7883 3.34365L11.788 3.34338C10.6574 2.27309 9.27756 1.73822 7.67834 1.73822C6.07911 1.73822 4.69929 2.27309 3.56867 3.34338L3.5684 3.34365C2.43759 4.41576 1.86257 5.73536 1.86257 7.27421C1.86257 8.81307 2.43759 10.1327 3.5684 11.2048L3.56867 11.205C4.69929 12.2753 6.07911 12.8102 7.67834 12.8102C9.27756 12.8102 10.6574 12.2753 11.788 11.205Z" stroke="black" stroke-opacity="0.2"/>
<path d="M13.4771 11.8898L18.273 16.4332L17.3462 17.3113L12.5111 12.7306L12.2032 12.4389L11.8652 12.6951C11.3211 13.1075 10.6904 13.4379 9.96851 13.6834C9.25595 13.9257 8.4936 14.0484 7.67834 14.0484C5.65345 14.0484 3.96247 13.389 2.57413 12.0737C1.18613 10.7587 0.5 9.16882 0.5 7.27421C0.5 5.37961 1.18613 3.78969 2.57413 2.47474C3.96247 1.15947 5.65345 0.5 7.67834 0.5C9.70323 0.5 11.3947 1.15947 12.7838 2.47483C14.1709 3.78972 14.8567 5.37961 14.8567 7.27421C14.8567 8.03773 14.7287 8.75145 14.4757 9.4192C14.2189 10.097 13.8727 10.6906 13.439 11.2042L13.1343 11.565L13.4771 11.8898ZM11.788 11.205L11.7883 11.2048C12.9191 10.1327 13.4941 8.81307 13.4941 7.27421C13.4941 5.73536 12.9191 4.41576 11.7883 3.34365L11.788 3.34338C10.6574 2.27309 9.27756 1.73822 7.67834 1.73822C6.07911 1.73822 4.69929 2.27309 3.56867 3.34338L3.5684 3.34365C2.43759 4.41576 1.86257 5.73536 1.86257 7.27421C1.86257 8.81307 2.43759 10.1327 3.5684 11.2048L3.56867 11.205C4.69929 12.2753 6.07911 12.8102 7.67834 12.8102C9.27756 12.8102 10.6574 12.2753 11.788 11.205Z" stroke="black" stroke-opacity="0.2"/>
</g>
</svg>
