<svg width="18" height="18" viewBox="0 0 18 18" fill="none" xmlns="http://www.w3.org/2000/svg">
<path d="M9.00008 17.3334C7.86119 17.3334 6.7848 17.1145 5.77092 16.6767C4.75703 16.239 3.87147 15.6417 3.11425 14.8851C2.35758 14.1284 1.76036 13.2431 1.32258 12.2292C0.884805 11.2154 0.666194 10.139 0.666749 9.00008C0.666749 7.8473 0.885638 6.7673 1.32342 5.76008C1.76119 4.75286 2.35842 3.87119 3.11508 3.11508C3.87175 2.35786 4.75675 1.76064 5.77008 1.32341C6.78342 0.886193 7.86008 0.667304 9.00008 0.666748C10.1529 0.666748 11.2329 0.885637 12.2401 1.32341C13.2473 1.76119 14.129 2.35841 14.8851 3.11508C15.6423 3.87175 16.2395 4.75369 16.6767 5.76091C17.114 6.76814 17.3329 7.84786 17.3334 9.00008C17.3334 10.139 17.1145 11.2154 16.6767 12.2292C16.239 13.2431 15.6417 14.1287 14.8851 14.8859C14.1284 15.6426 13.2465 16.2398 12.2392 16.6776C11.232 17.1154 10.1523 17.334 9.00008 17.3334ZM9.00008 15.6251C9.36119 15.1251 9.67369 14.6042 9.93758 14.0626C10.2015 13.5209 10.4167 12.9445 10.5834 12.3334H7.41675C7.58342 12.9445 7.79869 13.5209 8.06258 14.0626C8.32647 14.6042 8.63897 15.1251 9.00008 15.6251ZM6.83342 15.2917C6.58342 14.8334 6.36453 14.3576 6.17675 13.8642C5.98897 13.3709 5.83286 12.8606 5.70842 12.3334H3.25008C3.65286 13.0279 4.15647 13.632 4.76092 14.1459C5.36536 14.6598 6.05619 15.0417 6.83342 15.2917ZM11.1667 15.2917C11.9445 15.0417 12.6356 14.6598 13.2401 14.1459C13.8445 13.632 14.3479 13.0279 14.7501 12.3334H12.2917C12.1667 12.8612 12.0106 13.3717 11.8234 13.8651C11.6362 14.3584 11.4173 14.834 11.1667 15.2917ZM2.54175 10.6667H5.37508C5.33342 10.389 5.30203 10.1145 5.28092 9.84341C5.2598 9.5723 5.24953 9.29119 5.25008 9.00008C5.25008 8.70841 5.26064 8.4273 5.28175 8.15675C5.30286 7.88619 5.33397 7.61175 5.37508 7.33341H2.54175C2.4723 7.61119 2.42008 7.88564 2.38508 8.15675C2.35008 8.42786 2.33286 8.70897 2.33342 9.00008C2.33342 9.29175 2.35092 9.57286 2.38592 9.84341C2.42092 10.114 2.47286 10.3884 2.54175 10.6667ZM7.04175 10.6667H10.9584C11.0001 10.389 11.0315 10.1145 11.0526 9.84341C11.0737 9.5723 11.084 9.29119 11.0834 9.00008C11.0834 8.70841 11.0729 8.4273 11.0517 8.15675C11.0306 7.88619 10.9995 7.61175 10.9584 7.33341H7.04175C7.00008 7.61119 6.96869 7.88564 6.94758 8.15675C6.92647 8.42786 6.91619 8.70897 6.91675 9.00008C6.91675 9.29175 6.9273 9.57286 6.94842 9.84341C6.96953 10.114 7.00064 10.3884 7.04175 10.6667ZM12.6251 10.6667H15.4584C15.5279 10.389 15.5801 10.1145 15.6151 9.84341C15.6501 9.5723 15.6673 9.29119 15.6667 9.00008C15.6667 8.70841 15.6492 8.4273 15.6142 8.15675C15.5792 7.88619 15.5273 7.61175 15.4584 7.33341H12.6251C12.6667 7.61119 12.6981 7.88564 12.7192 8.15675C12.7404 8.42786 12.7506 8.70897 12.7501 9.00008C12.7501 9.29175 12.7395 9.57286 12.7184 9.84341C12.6973 10.114 12.6662 10.3884 12.6251 10.6667ZM12.2917 5.66675H14.7501C14.3473 4.9723 13.844 4.36814 13.2401 3.85425C12.6362 3.34036 11.9451 2.95841 11.1667 2.70841C11.4167 3.16675 11.6356 3.64258 11.8234 4.13591C12.0112 4.62925 12.1673 5.13953 12.2917 5.66675ZM7.41675 5.66675H10.5834C10.4167 5.05564 10.2015 4.47925 9.93758 3.93758C9.67369 3.39591 9.36119 2.87508 9.00008 2.37508C8.63897 2.87508 8.32647 3.39591 8.06258 3.93758C7.79869 4.47925 7.58342 5.05564 7.41675 5.66675ZM3.25008 5.66675H5.70842C5.83342 5.13897 5.9898 4.62841 6.17758 4.13508C6.36536 3.64175 6.58397 3.16619 6.83342 2.70841C6.05564 2.95841 5.36453 3.34036 4.76008 3.85425C4.15564 4.36814 3.6523 4.9723 3.25008 5.66675Z" fill="#565757"/>
</svg>
