<svg width="84" height="45" viewBox="0 0 84 45" fill="none" xmlns="http://www.w3.org/2000/svg">
<g filter="url(#filter0_d_0_933)">
<rect x="4" y="4" width="76" height="37" rx="3" fill="#666666"/>
<rect x="4.5" y="4.5" width="75" height="36" rx="2.5" stroke="white"/>
</g>
<path d="M22.4714 15.395V19.355L20.9264 20.9H16.4264V25.4H17.6264V26H11.7764V25.4H12.9764V14.6H11.7764V14H21.0764L22.4714 15.395ZM16.4264 20.3H19.0214V14.6H16.4264V20.3Z" fill="#F79400"/>
<path d="M31.9285 18.095L31.4635 18.56L30.5035 17.6H29.2285L28.1785 18.65V25.4H29.3785V26H26.1235L24.7285 24.605V17.6H23.5285V17H26.7835L27.8485 18.05L28.8985 17H30.8335L31.9285 18.095Z" fill="#F79400"/>
<path d="M34.9597 15.8L32.6797 13.505L34.9747 11.225L37.2547 13.52L34.9597 15.8ZM38.0797 25.4V26H34.8247L33.4297 24.605V17.6H32.2297V17H35.4847L36.8797 18.395V25.4H38.0797Z" fill="#F79400"/>
<path d="M55.7 25.4V26H52.37L51.125 24.755V17.6H50.075L49.025 18.65V25.4H49.925V26H45.575V17.6H44.525L43.475 18.65V25.4H44.375V26H38.825V25.4H40.025V17.6H38.825V17H42.08L43.145 18.05L44.195 17H47.63L48.695 18.05L49.745 17H53.105L54.5 18.395V25.4H55.7Z" fill="#F79400"/>
<path d="M58.2886 26H64.1236L65.5186 24.605L65.0536 24.14L63.7936 25.4H60.3436V22.25H64.0486L65.4436 20.855V18.395L64.0486 17H58.2886L56.8936 18.395V24.605L58.2886 26ZM60.3436 17.6H61.9936V21.65H60.3436V17.6Z" fill="#F79400"/>
<path d="M66.1959 17H71.6409V17.6H70.7409L72.3909 20.18L74.1909 17.6H73.4109V17H76.0809V17.6H75.0009L72.7659 20.78L75.7059 25.4H76.6809V26H71.0409V25.4H72.1359L70.2459 22.445L68.1759 25.4H69.2559V26H66.3459V25.4H67.3659L69.8709 21.83L67.1709 17.6H66.1959V17Z" fill="#F79400"/>
<path d="M20.5281 33.02C20.3201 33.02 20.1335 32.9747 19.9681 32.884C19.8055 32.7907 19.6775 32.664 19.5841 32.504C19.4908 32.3413 19.4441 32.156 19.4441 31.948C19.4441 31.7373 19.4908 31.552 19.5841 31.392C19.6775 31.232 19.8055 31.1067 19.9681 31.016C20.1335 30.9253 20.3201 30.88 20.5281 30.88C20.7068 30.88 20.8681 30.9147 21.0121 30.984C21.1561 31.0533 21.2695 31.1573 21.3521 31.296L21.1401 31.44C21.0681 31.3333 20.9788 31.2547 20.8721 31.204C20.7655 31.1533 20.6495 31.128 20.5241 31.128C20.3748 31.128 20.2401 31.1627 20.1201 31.232C20.0001 31.2987 19.9055 31.3933 19.8361 31.516C19.7668 31.6387 19.7321 31.7827 19.7321 31.948C19.7321 32.1133 19.7668 32.2573 19.8361 32.38C19.9055 32.5027 20.0001 32.5987 20.1201 32.668C20.2401 32.7347 20.3748 32.768 20.5241 32.768C20.6495 32.768 20.7655 32.7427 20.8721 32.692C20.9788 32.6413 21.0681 32.564 21.1401 32.46L21.3521 32.604C21.2695 32.74 21.1561 32.844 21.0121 32.916C20.8681 32.9853 20.7068 33.02 20.5281 33.02ZM22.263 33V31.072L22.335 31.148H21.467V30.9H23.343V31.148H22.475L22.547 31.072V33H22.263ZM24.8376 33.02C24.6563 33.02 24.4923 32.9787 24.3456 32.896C24.1989 32.8107 24.0816 32.6893 23.9936 32.532C23.9083 32.372 23.8656 32.1773 23.8656 31.948C23.8656 31.7187 23.9083 31.5253 23.9936 31.368C24.0789 31.208 24.1949 31.0867 24.3416 31.004C24.4883 30.9213 24.6536 30.88 24.8376 30.88C25.0376 30.88 25.2163 30.9253 25.3736 31.016C25.5336 31.104 25.6589 31.2293 25.7496 31.392C25.8403 31.552 25.8856 31.7373 25.8856 31.948C25.8856 32.1613 25.8403 32.348 25.7496 32.508C25.6589 32.668 25.5336 32.7933 25.3736 32.884C25.2163 32.9747 25.0376 33.02 24.8376 33.02ZM23.7536 33.776V30.9H24.0256V31.532L23.9976 31.952L24.0376 32.376V33.776H23.7536ZM24.8176 32.768C24.9669 32.768 25.1003 32.7347 25.2176 32.668C25.3349 32.5987 25.4283 32.5027 25.4976 32.38C25.5669 32.2547 25.6016 32.1107 25.6016 31.948C25.6016 31.7853 25.5669 31.6427 25.4976 31.52C25.4283 31.3973 25.3349 31.3013 25.2176 31.232C25.1003 31.1627 24.9669 31.128 24.8176 31.128C24.6683 31.128 24.5336 31.1627 24.4136 31.232C24.2963 31.3013 24.2029 31.3973 24.1336 31.52C24.0669 31.6427 24.0336 31.7853 24.0336 31.948C24.0336 32.1107 24.0669 32.2547 24.1336 32.38C24.2029 32.5027 24.2963 32.5987 24.4136 32.668C24.5336 32.7347 24.6683 32.768 24.8176 32.768ZM27.3598 33.02C27.1571 33.02 26.9745 32.9747 26.8118 32.884C26.6518 32.7907 26.5251 32.664 26.4318 32.504C26.3385 32.3413 26.2918 32.156 26.2918 31.948C26.2918 31.7373 26.3385 31.552 26.4318 31.392C26.5251 31.232 26.6518 31.1067 26.8118 31.016C26.9718 30.9253 27.1545 30.88 27.3598 30.88C27.5678 30.88 27.7518 30.9253 27.9118 31.016C28.0745 31.1067 28.2011 31.232 28.2918 31.392C28.3851 31.552 28.4318 31.7373 28.4318 31.948C28.4318 32.156 28.3851 32.3413 28.2918 32.504C28.2011 32.664 28.0745 32.7907 27.9118 32.884C27.7491 32.9747 27.5651 33.02 27.3598 33.02ZM27.3598 32.768C27.5118 32.768 27.6465 32.7347 27.7638 32.668C27.8811 32.5987 27.9731 32.5027 28.0398 32.38C28.1091 32.2547 28.1438 32.1107 28.1438 31.948C28.1438 31.7827 28.1091 31.6387 28.0398 31.516C27.9731 31.3933 27.8811 31.2987 27.7638 31.232C27.6465 31.1627 27.5131 31.128 27.3638 31.128C27.2145 31.128 27.0811 31.1627 26.9638 31.232C26.8465 31.2987 26.7531 31.3933 26.6838 31.516C26.6145 31.6387 26.5798 31.7827 26.5798 31.948C26.5798 32.1107 26.6145 32.2547 26.6838 32.38C26.7531 32.5027 26.8465 32.5987 26.9638 32.668C27.0811 32.7347 27.2131 32.768 27.3598 32.768ZM29.0388 33V30.9H29.3228V32.568L30.7268 30.9H30.9788V33H30.6948V31.328L29.2948 33H29.0388ZM32.1927 33V31.072L32.2647 31.148H31.3967V30.9H33.2727V31.148H32.4047L32.4767 31.072V33H32.1927ZM34.4856 33.02C34.267 33.02 34.075 32.9747 33.9096 32.884C33.7443 32.7907 33.615 32.664 33.5216 32.504C33.4283 32.3413 33.3816 32.156 33.3816 31.948C33.3816 31.74 33.4256 31.556 33.5136 31.396C33.6043 31.236 33.727 31.1107 33.8816 31.02C34.039 30.9267 34.215 30.88 34.4096 30.88C34.607 30.88 34.7816 30.9253 34.9336 31.016C35.0883 31.104 35.2096 31.2293 35.2976 31.392C35.3856 31.552 35.4296 31.7373 35.4296 31.948C35.4296 31.9613 35.4283 31.976 35.4256 31.992C35.4256 32.0053 35.4256 32.02 35.4256 32.036H33.5976V31.824H35.2736L35.1616 31.908C35.1616 31.756 35.1283 31.6213 35.0616 31.504C34.9976 31.384 34.9096 31.2907 34.7976 31.224C34.6856 31.1573 34.5563 31.124 34.4096 31.124C34.2656 31.124 34.1363 31.1573 34.0216 31.224C33.907 31.2907 33.8176 31.384 33.7536 31.504C33.6896 31.624 33.6576 31.7613 33.6576 31.916V31.96C33.6576 32.12 33.6923 32.2613 33.7616 32.384C33.8336 32.504 33.9323 32.5987 34.0576 32.668C34.1856 32.7347 34.331 32.768 34.4936 32.768C34.6216 32.768 34.7403 32.7453 34.8496 32.7C34.9616 32.6547 35.0576 32.5853 35.1376 32.492L35.2976 32.676C35.2043 32.788 35.087 32.8733 34.9456 32.932C34.807 32.9907 34.6536 33.02 34.4856 33.02ZM35.6313 32.996L35.6513 32.752C35.67 32.7547 35.6873 32.7587 35.7033 32.764C35.722 32.7667 35.738 32.768 35.7513 32.768C35.8367 32.768 35.9047 32.736 35.9553 32.672C36.0087 32.608 36.0487 32.5227 36.0753 32.416C36.102 32.3093 36.1207 32.1893 36.1313 32.056C36.142 31.92 36.1513 31.784 36.1593 31.648L36.1953 30.9H37.7353V33H37.4513V31.064L37.5233 31.148H36.3793L36.4473 31.06L36.4153 31.668C36.4073 31.8493 36.3927 32.0227 36.3713 32.188C36.3527 32.3533 36.322 32.4987 36.2793 32.624C36.2393 32.7493 36.1833 32.848 36.1113 32.92C36.0393 32.9893 35.9473 33.024 35.8353 33.024C35.8033 33.024 35.77 33.0213 35.7353 33.016C35.7033 33.0107 35.6687 33.004 35.6313 32.996ZM39.4467 31.64C39.7107 31.6427 39.9107 31.7013 40.0467 31.816C40.1853 31.9307 40.2547 32.096 40.2547 32.312C40.2547 32.536 40.18 32.708 40.0307 32.828C39.884 32.948 39.6707 33.0067 39.3907 33.004L38.5427 33V30.9H38.8267V31.632L39.4467 31.64ZM39.3747 32.788C39.5693 32.7907 39.716 32.752 39.8147 32.672C39.916 32.5893 39.9667 32.4693 39.9667 32.312C39.9667 32.1547 39.9173 32.04 39.8187 31.968C39.72 31.8933 39.572 31.8547 39.3747 31.852L38.8267 31.844V32.78L39.3747 32.788ZM40.7966 33V30.9H41.0806V31.828H42.4046V30.9H42.6886V33H42.4046V32.072H41.0806V33H40.7966ZM44.7998 33V32.536L44.7878 32.46V31.684C44.7878 31.5053 44.7371 31.368 44.6358 31.272C44.5371 31.176 44.3891 31.128 44.1918 31.128C44.0558 31.128 43.9265 31.1507 43.8038 31.196C43.6811 31.2413 43.5771 31.3013 43.4918 31.376L43.3638 31.164C43.4705 31.0733 43.5985 31.004 43.7478 30.956C43.8971 30.9053 44.0545 30.88 44.2198 30.88C44.4918 30.88 44.7011 30.948 44.8478 31.084C44.9971 31.2173 45.0718 31.4213 45.0718 31.696V33H44.7998ZM44.0758 33.02C43.9185 33.02 43.7811 32.9947 43.6638 32.944C43.5491 32.8907 43.4611 32.8187 43.3998 32.728C43.3385 32.6347 43.3078 32.528 43.3078 32.408C43.3078 32.2987 43.3331 32.2 43.3838 32.112C43.4371 32.0213 43.5225 31.9493 43.6398 31.896C43.7598 31.84 43.9198 31.812 44.1198 31.812H44.8438V32.024H44.1278C43.9251 32.024 43.7838 32.06 43.7038 32.132C43.6265 32.204 43.5878 32.2933 43.5878 32.4C43.5878 32.52 43.6345 32.616 43.7278 32.688C43.8211 32.76 43.9518 32.796 44.1198 32.796C44.2798 32.796 44.4171 32.76 44.5318 32.688C44.6491 32.6133 44.7345 32.5067 44.7878 32.368L44.8518 32.564C44.7985 32.7027 44.7051 32.8133 44.5718 32.896C44.4411 32.9787 44.2758 33.02 44.0758 33.02ZM47.1838 33V32.244L47.2358 32.304H46.5238C46.2545 32.304 46.0438 32.2453 45.8918 32.128C45.7398 32.0107 45.6638 31.84 45.6638 31.616C45.6638 31.376 45.7452 31.1973 45.9078 31.08C46.0705 30.96 46.2878 30.9 46.5598 30.9H47.4438V33H47.1838ZM45.6478 33L46.2238 32.192H46.5198L45.9558 33H45.6478ZM47.1838 32.16V31.064L47.2358 31.148H46.5678C46.3732 31.148 46.2212 31.1853 46.1118 31.26C46.0052 31.3347 45.9518 31.456 45.9518 31.624C45.9518 31.936 46.1505 32.092 46.5478 32.092H47.2358L47.1838 32.16ZM50.8405 33L49.9765 31.96L50.2125 31.82L51.1765 33H50.8405ZM49.3005 33V30.9H49.5845V33H49.3005ZM49.4965 32.064V31.82H50.1725V32.064H49.4965ZM50.2365 31.98L49.9725 31.94L50.8085 30.9H51.1165L50.2365 31.98ZM52.4145 33.02C52.2118 33.02 52.0292 32.9747 51.8665 32.884C51.7065 32.7907 51.5798 32.664 51.4865 32.504C51.3932 32.3413 51.3465 32.156 51.3465 31.948C51.3465 31.7373 51.3932 31.552 51.4865 31.392C51.5798 31.232 51.7065 31.1067 51.8665 31.016C52.0265 30.9253 52.2092 30.88 52.4145 30.88C52.6225 30.88 52.8065 30.9253 52.9665 31.016C53.1292 31.1067 53.2558 31.232 53.3465 31.392C53.4398 31.552 53.4865 31.7373 53.4865 31.948C53.4865 32.156 53.4398 32.3413 53.3465 32.504C53.2558 32.664 53.1292 32.7907 52.9665 32.884C52.8038 32.9747 52.6198 33.02 52.4145 33.02ZM52.4145 32.768C52.5665 32.768 52.7012 32.7347 52.8185 32.668C52.9358 32.5987 53.0278 32.5027 53.0945 32.38C53.1638 32.2547 53.1985 32.1107 53.1985 31.948C53.1985 31.7827 53.1638 31.6387 53.0945 31.516C53.0278 31.3933 52.9358 31.2987 52.8185 31.232C52.7012 31.1627 52.5678 31.128 52.4185 31.128C52.2692 31.128 52.1358 31.1627 52.0185 31.232C51.9012 31.2987 51.8078 31.3933 51.7385 31.516C51.6692 31.6387 51.6345 31.7827 51.6345 31.948C51.6345 32.1107 51.6692 32.2547 51.7385 32.38C51.8078 32.5027 51.9012 32.5987 52.0185 32.668C52.1358 32.7347 52.2678 32.768 52.4145 32.768ZM54.0935 33V30.9H54.3815L55.3335 32.512H55.2135L56.1815 30.9H56.4455V33H56.1855V31.224L56.2375 31.248L55.3335 32.744H55.2055L54.2935 31.232L54.3535 31.22V33H54.0935ZM57.2536 33V30.9H59.1416V33H58.8576V31.072L58.9296 31.148H57.4656L57.5376 31.072V33H57.2536ZM61.2529 33V32.536L61.2409 32.46V31.684C61.2409 31.5053 61.1903 31.368 61.0889 31.272C60.9903 31.176 60.8423 31.128 60.6449 31.128C60.5089 31.128 60.3796 31.1507 60.2569 31.196C60.1343 31.2413 60.0303 31.3013 59.9449 31.376L59.8169 31.164C59.9236 31.0733 60.0516 31.004 60.2009 30.956C60.3503 30.9053 60.5076 30.88 60.6729 30.88C60.9449 30.88 61.1543 30.948 61.3009 31.084C61.4503 31.2173 61.5249 31.4213 61.5249 31.696V33H61.2529ZM60.5289 33.02C60.3716 33.02 60.2343 32.9947 60.1169 32.944C60.0023 32.8907 59.9143 32.8187 59.8529 32.728C59.7916 32.6347 59.7609 32.528 59.7609 32.408C59.7609 32.2987 59.7863 32.2 59.8369 32.112C59.8903 32.0213 59.9756 31.9493 60.0929 31.896C60.2129 31.84 60.3729 31.812 60.5729 31.812H61.2969V32.024H60.5809C60.3783 32.024 60.2369 32.06 60.1569 32.132C60.0796 32.204 60.0409 32.2933 60.0409 32.4C60.0409 32.52 60.0876 32.616 60.1809 32.688C60.2743 32.76 60.4049 32.796 60.5729 32.796C60.7329 32.796 60.8703 32.76 60.9849 32.688C61.1023 32.6133 61.1876 32.5067 61.2409 32.368L61.3049 32.564C61.2516 32.7027 61.1583 32.8133 61.0249 32.896C60.8943 32.9787 60.7289 33.02 60.5289 33.02ZM62.281 33V30.9H62.565V31.828H63.889V30.9H64.173V33H63.889V32.072H62.565V33H62.281ZM64.9802 33V30.9H65.2642V32.568L66.6682 30.9H66.9202V33H66.6362V31.328L65.2362 33H64.9802ZM69.0901 33V32.244L69.1421 32.304H68.4301C68.1607 32.304 67.9501 32.2453 67.7981 32.128C67.6461 32.0107 67.5701 31.84 67.5701 31.616C67.5701 31.376 67.6514 31.1973 67.8141 31.08C67.9767 30.96 68.1941 30.9 68.4661 30.9H69.3501V33H69.0901ZM67.5541 33L68.1301 32.192H68.4261L67.8621 33H67.5541ZM69.0901 32.16V31.064L69.1421 31.148H68.4741C68.2794 31.148 68.1274 31.1853 68.0181 31.26C67.9114 31.3347 67.8581 31.456 67.8581 31.624C67.8581 31.936 68.0567 32.092 68.4541 32.092H69.1421L69.0901 32.16Z" fill="white"/>
<defs>
<filter id="filter0_d_0_933" x="0" y="0" width="84" height="45" filterUnits="userSpaceOnUse" color-interpolation-filters="sRGB">
<feFlood flood-opacity="0" result="BackgroundImageFix"/>
<feColorMatrix in="SourceAlpha" type="matrix" values="0 0 0 0 0 0 0 0 0 0 0 0 0 0 0 0 0 0 127 0" result="hardAlpha"/>
<feOffset/>
<feGaussianBlur stdDeviation="2"/>
<feComposite in2="hardAlpha" operator="out"/>
<feColorMatrix type="matrix" values="0 0 0 0 0 0 0 0 0 0 0 0 0 0 0 0 0 0 0.15 0"/>
<feBlend mode="normal" in2="BackgroundImageFix" result="effect1_dropShadow_0_933"/>
<feBlend mode="normal" in="SourceGraphic" in2="effect1_dropShadow_0_933" result="shape"/>
</filter>
</defs>
</svg>
