<svg width="84" height="45" viewBox="0 0 84 45" fill="none" xmlns="http://www.w3.org/2000/svg">
<g filter="url(#filter0_d_0_955)">
<rect x="4" y="4" width="76" height="37" rx="3" fill="#A98743"/>
<rect x="4.5" y="4.5" width="75" height="36" rx="2.5" stroke="white"/>
</g>
<path d="M43.672 15.7776C44.4197 15.7776 44.9929 15.967 45.3917 16.3458C45.8004 16.7246 46.0047 17.233 46.0047 17.871C46.0047 18.4991 45.8851 19.0125 45.6459 19.4112C45.4166 19.81 45.0776 20.124 44.629 20.3533C44.1904 20.5826 43.672 20.6972 43.0739 20.6972H42.3561V20.7121L42.416 23H40.8907L40.9804 20.8467L40.8907 15.7925L43.672 15.7776ZM44.4347 18.1103C44.4347 17.7016 44.33 17.4025 44.1206 17.2131C43.9213 17.0137 43.6072 16.909 43.1786 16.8991L42.416 16.9439L42.3861 19.5308L43.4029 19.5907C44.0907 19.3813 44.4347 18.8879 44.4347 18.1103ZM50.8607 20.129C51.4589 21.0561 52.0371 21.8935 52.5953 22.6411L52.5654 22.8056C52.0769 22.985 51.5835 23.0897 51.085 23.1196L50.9205 22.985C50.3822 22.0579 49.9436 21.2555 49.6047 20.5776H48.528V20.7121L48.5878 23H47.0626L47.1523 20.8467L47.0626 15.7925L49.8439 15.7776C50.6015 15.7776 51.1847 15.962 51.5934 16.3308C52.0022 16.6997 52.2065 17.228 52.2065 17.9159C52.2065 18.3745 52.0869 18.7981 51.8476 19.1869C51.6084 19.5757 51.2794 19.8897 50.8607 20.129ZM50.6065 18.0654C50.6065 17.3078 50.1878 16.919 49.3505 16.8991L48.5878 16.9439L48.5579 19.3813L49.6645 19.4411C50.3025 19.2218 50.6165 18.7632 50.6065 18.0654ZM56.4526 15.6879C57.5093 15.6879 58.3118 15.9969 58.8601 16.615C59.4084 17.233 59.6825 18.1352 59.6825 19.3215C59.6825 20.5078 59.3835 21.4399 58.7853 22.1178C58.1972 22.7857 57.3747 23.1196 56.318 23.1196C55.2713 23.1196 54.4738 22.8056 53.9255 22.1776C53.3772 21.5396 53.1031 20.6274 53.1031 19.4411C53.1031 18.2548 53.3972 17.3327 53.9853 16.6748C54.5835 16.0168 55.4059 15.6879 56.4526 15.6879ZM56.3928 16.914C55.7947 16.914 55.361 17.1034 55.0919 17.4822C54.8227 17.8511 54.6881 18.4841 54.6881 19.3813C54.6881 20.2785 54.8177 20.9315 55.0769 21.3402C55.3461 21.7389 55.7847 21.9383 56.3928 21.9383C57.0009 21.9383 57.4345 21.7539 57.6937 21.385C57.9629 21.0062 58.0975 20.3682 58.0975 19.471C58.0975 18.5639 57.9629 17.9109 57.6937 17.5121C57.4345 17.1134 57.0009 16.914 56.3928 16.914Z" fill="#EEEBD3"/>
<path d="M30.1548 27.572C30.1548 28.3994 29.7909 28.9626 29.0632 29.2617C30.0302 29.481 30.5137 30.0492 30.5137 30.9664C30.5137 32.362 29.4171 33.0598 27.2239 33.0598C26.5859 33.0598 25.928 33.0399 25.2501 33L25.3398 30.8467L25.2501 25.7925L27.8221 25.7776C28.5598 25.7776 29.133 25.9321 29.5417 26.2411C29.9504 26.5502 30.1548 26.9938 30.1548 27.572ZM28.5996 27.7813C28.5996 27.4523 28.5049 27.2181 28.3155 27.0785C28.1261 26.9389 27.7872 26.8692 27.2987 26.8692H26.7454L26.7155 28.828L27.7623 28.8729C28.3205 28.7234 28.5996 28.3595 28.5996 27.7813ZM27.6426 31.9682C28.0115 31.9682 28.3255 31.8785 28.5847 31.6991C28.8439 31.5097 28.9735 31.2405 28.9735 30.8916C28.9735 30.3632 28.6246 30.0343 27.9267 29.9047L26.6856 29.9196L26.6707 30.7121L26.7155 31.9234C26.9747 31.9533 27.2837 31.9682 27.6426 31.9682ZM36.1002 31.9832C36.1899 31.9832 36.2946 31.9682 36.4142 31.9383L36.5189 32.028L36.3843 32.8056C36.145 32.9551 35.8709 33.0498 35.5618 33.0897C35.0933 33.0498 34.7992 32.7707 34.6796 32.2523H34.56C34.1313 32.6611 33.6927 32.9302 33.2441 33.0598C32.6858 33.0598 32.2572 32.9352 31.9581 32.686C31.659 32.4268 31.5095 32.053 31.5095 31.5645L31.5394 30.2486L31.4946 27.886L32.9301 27.7664L32.8852 31.071C32.8852 31.5994 33.1095 31.8636 33.5581 31.8636C33.8771 31.8636 34.2011 31.719 34.5301 31.4299V27.886L35.9506 27.7664L35.8609 31.6542C35.8609 31.8735 35.9407 31.9832 36.1002 31.9832ZM38.1451 25.2393C38.3844 25.2393 38.5688 25.309 38.6984 25.4486C38.828 25.5782 38.8928 25.7676 38.8928 26.0168C38.8928 26.2561 38.823 26.4505 38.6834 26.6C38.5439 26.7495 38.3495 26.8243 38.1002 26.8243C37.861 26.8243 37.6716 26.7595 37.532 26.6299C37.4024 26.4903 37.3376 26.3009 37.3376 26.0617C37.3376 25.8224 37.4124 25.628 37.5619 25.4785C37.7115 25.319 37.9059 25.2393 38.1451 25.2393ZM38.8479 33H37.3526L37.4274 30.8467L37.3675 27.886L38.8629 27.7664L38.7582 30.7121L38.8479 33ZM41.7209 33H40.2405L40.3153 30.8318L40.2555 25.2542L41.7358 25.1346L41.6461 30.7121L41.7209 33ZM47.4846 31.6542C47.4945 31.7838 47.5145 31.8735 47.5444 31.9234C47.5743 31.9632 47.6341 31.9832 47.7238 31.9832C47.8135 31.9832 47.9182 31.9682 48.0378 31.9383L48.1425 32.028L48.0079 32.8056C47.7687 32.9551 47.4945 33.0498 47.1855 33.0897C46.707 33.0498 46.4029 32.7907 46.2734 32.3121H46.1836C45.8248 32.6511 45.4509 32.9053 45.0621 33.0748C44.3244 33.0748 43.7562 32.8455 43.3575 32.3869C42.9587 31.9184 42.7593 31.2555 42.7593 30.3981C42.7593 29.5408 42.9886 28.8779 43.4472 28.4093C43.9157 27.9408 44.5587 27.7065 45.3762 27.7065C45.5955 27.7065 45.8347 27.7265 46.0939 27.7664L46.079 25.2542L47.5593 25.1346L47.4547 30.7121L47.4846 31.6542ZM44.15 30.1589C44.15 31.3252 44.5039 31.9084 45.2117 31.9084C45.5307 31.9084 45.8347 31.7539 46.1238 31.4449L46.1388 30.8318L46.1089 28.9028C45.8198 28.7732 45.5456 28.7084 45.2864 28.7084C44.5288 28.7084 44.15 29.1919 44.15 30.1589ZM49.7701 25.2393C50.0094 25.2393 50.1938 25.309 50.3234 25.4486C50.453 25.5782 50.5178 25.7676 50.5178 26.0168C50.5178 26.2561 50.448 26.4505 50.3084 26.6C50.1689 26.7495 49.9745 26.8243 49.7252 26.8243C49.486 26.8243 49.2966 26.7595 49.157 26.6299C49.0274 26.4903 48.9626 26.3009 48.9626 26.0617C48.9626 25.8224 49.0374 25.628 49.1869 25.4785C49.3365 25.319 49.5309 25.2393 49.7701 25.2393ZM50.4729 33H48.9776L49.0524 30.8467L48.9925 27.886L50.4879 27.7664L50.3832 30.7121L50.4729 33ZM55.0057 29.7551C55.0057 29.2069 54.7714 28.9327 54.3029 28.9327C53.964 28.9327 53.6051 29.0922 53.2263 29.4112V30.7121L53.301 33H51.8057L51.8805 30.8467L51.8207 27.886L53.2412 27.7664V28.529H53.316C53.7447 28.1502 54.1932 27.881 54.6618 27.7215C55.23 27.7215 55.6587 27.8511 55.9478 28.1103C56.2468 28.3695 56.3914 28.7383 56.3814 29.2168L56.3515 30.7121L56.4113 33H54.916L55.0057 29.7551ZM62.7206 28.4991C62.5213 28.5489 62.2322 28.6037 61.8533 28.6636L61.8234 28.7084C61.9331 28.9277 61.9879 29.1769 61.9879 29.4561C61.9879 30.0143 61.7836 30.4629 61.3748 30.8019C60.9761 31.1308 60.4278 31.2953 59.73 31.2953C59.5206 31.2953 59.3063 31.2754 59.087 31.2355C58.9773 31.3452 58.9225 31.4449 58.9225 31.5346C58.9225 31.6642 59.0072 31.7589 59.1767 31.8187C59.3561 31.8685 59.6552 31.9184 60.0739 31.9682C60.4926 32.0181 60.8465 32.0829 61.1356 32.1626C61.4247 32.2324 61.6739 32.362 61.8833 32.5514C62.1026 32.7408 62.2122 33.005 62.2122 33.3439C62.2122 33.6928 62.1026 34.0069 61.8833 34.286C61.4247 34.8841 60.682 35.1832 59.6552 35.1832C58.9773 35.1832 58.454 35.0436 58.0851 34.7645C57.7163 34.4854 57.5318 34.1215 57.5318 33.6729C57.7611 33.3539 58.0752 33.0748 58.4739 32.8355V32.7757C57.9356 32.5763 57.6664 32.2374 57.6664 31.7589C57.8658 31.5196 58.12 31.2903 58.429 31.071V31.0262C57.8808 30.7271 57.6066 30.2685 57.6066 29.6505C57.6066 29.0224 57.806 28.5439 58.2047 28.215C58.6135 27.876 59.1667 27.7065 59.8646 27.7065C60.2733 27.7065 60.6371 27.7763 60.9561 27.9159C61.4945 27.8162 62.0428 27.6667 62.601 27.4673L62.7206 27.572V28.4991ZM60.7019 29.486C60.7019 28.9178 60.3979 28.6336 59.7898 28.6336C59.1917 28.6336 58.8926 28.9227 58.8926 29.5009C58.8926 30.109 59.1867 30.4081 59.7748 30.3981C60.3929 30.4081 60.7019 30.104 60.7019 29.486ZM60.9711 33.628C60.9711 33.4187 60.8614 33.2741 60.6421 33.1944C60.4228 33.1246 60.1537 33.0698 59.8347 33.0299C59.5256 33 59.3412 32.9751 59.2814 32.9551C58.9325 33.1944 58.758 33.4187 58.758 33.628C58.758 33.8474 58.8477 34.0168 59.0272 34.1364C59.2066 34.2561 59.4658 34.3159 59.8047 34.3159C60.1537 34.3159 60.4328 34.2511 60.6421 34.1215C60.8614 34.0019 60.9711 33.8374 60.9711 33.628Z" fill="#EEEBD3"/>
<rect x="28.5455" y="10" width="7.09091" height="10" fill="#E8E5CD"/>
<rect x="25" y="14" width="5.90909" height="10" fill="#EEEBD3"/>
<rect x="30.9091" y="14" width="1.18182" height="10" fill="#A98743"/>
<rect x="32.0909" y="15" width="3.54545" height="1" fill="#A98743"/>
<rect x="28.5455" y="13" width="3.54545" height="1" fill="#A98743"/>
<rect x="32.0909" y="16" width="5.90909" height="8" fill="#E8E5CD"/>
<defs>
<filter id="filter0_d_0_955" x="0" y="0" width="84" height="45" filterUnits="userSpaceOnUse" color-interpolation-filters="sRGB">
<feFlood flood-opacity="0" result="BackgroundImageFix"/>
<feColorMatrix in="SourceAlpha" type="matrix" values="0 0 0 0 0 0 0 0 0 0 0 0 0 0 0 0 0 0 127 0" result="hardAlpha"/>
<feOffset/>
<feGaussianBlur stdDeviation="2"/>
<feComposite in2="hardAlpha" operator="out"/>
<feColorMatrix type="matrix" values="0 0 0 0 0 0 0 0 0 0 0 0 0 0 0 0 0 0 0.15 0"/>
<feBlend mode="normal" in2="BackgroundImageFix" result="effect1_dropShadow_0_955"/>
<feBlend mode="normal" in="SourceGraphic" in2="effect1_dropShadow_0_955" result="shape"/>
</filter>
</defs>
</svg>
