<svg width="84" height="45" viewBox="0 0 84 45" fill="none" xmlns="http://www.w3.org/2000/svg">
<g filter="url(#filter0_d_0_941)">
<rect x="4" y="4" width="76" height="37" rx="3" fill="#3E5641"/>
<rect x="4.5" y="4.5" width="75" height="36" rx="2.5" stroke="white"/>
</g>
<path d="M17.7772 26.168C18.7639 26.168 19.5159 25.8933 20.0332 25.344C20.5559 24.7893 20.8172 23.984 20.8172 22.928C20.8172 22.2773 20.6332 21.7253 20.2652 21.272C19.9026 20.8187 19.3319 20.4267 18.5532 20.096C18.4786 20.048 18.3666 19.9867 18.2172 19.912C18.0732 19.832 17.9586 19.7653 17.8732 19.712C17.7932 19.6587 17.7052 19.5947 17.6092 19.52C17.5132 19.4453 17.4439 19.3627 17.4012 19.272C17.3586 19.1813 17.3372 19.08 17.3372 18.968C17.3372 18.5413 17.6786 18.328 18.3612 18.328C18.6439 18.328 18.9399 18.3893 19.2492 18.512C19.5639 18.6293 19.8252 18.8107 20.0332 19.056L20.4332 17.512C20.4172 17.4853 20.3906 17.4507 20.3532 17.408C20.3159 17.36 20.2252 17.28 20.0812 17.168C19.9426 17.0507 19.7879 16.9493 19.6172 16.864C19.4466 16.7787 19.2092 16.7013 18.9052 16.632C18.6066 16.5573 18.2866 16.52 17.9452 16.52C15.7959 16.52 14.7212 17.472 14.7212 19.376C14.7212 19.728 14.7746 20.0587 14.8812 20.368C14.9879 20.672 15.1106 20.9227 15.2492 21.12C15.3879 21.312 15.5666 21.4987 15.7852 21.68C16.0092 21.856 16.1879 21.984 16.3212 22.064C16.4546 22.1387 16.6172 22.224 16.8092 22.32C17.3372 22.576 17.7079 22.7947 17.9212 22.976C18.1399 23.1573 18.2492 23.376 18.2492 23.632C18.2492 23.872 18.1532 24.0373 17.9612 24.128C17.7746 24.2187 17.4679 24.264 17.0412 24.264C16.6146 24.264 16.2172 24.1573 15.8492 23.944C15.4812 23.7253 15.1879 23.4693 14.9692 23.176L14.7692 25.12C14.8706 25.2267 14.9959 25.3333 15.1452 25.44C15.2999 25.5467 15.4972 25.6587 15.7372 25.776C15.9772 25.8933 16.2732 25.9867 16.6252 26.056C16.9826 26.1307 17.3666 26.168 17.7772 26.168ZM23.6249 26.168C23.9876 26.168 24.3156 26.128 24.6089 26.048C24.9076 25.968 25.1209 25.8907 25.2489 25.816C25.3769 25.736 25.4809 25.656 25.5609 25.576V24.488C25.5022 24.536 25.4276 24.5733 25.3369 24.6C25.2462 24.6267 25.1449 24.64 25.0329 24.64C24.7769 24.64 24.5876 24.5707 24.4649 24.432C24.3422 24.2933 24.2809 24.0107 24.2809 23.584V20.608H25.6169V19.2H24.3049V17.336H22.8969L22.0809 19.2L21.1369 19.496V20.608H21.6889V23.328C21.6889 24.3573 21.8302 25.088 22.1129 25.52C22.4009 25.952 22.9049 26.168 23.6249 26.168ZM29.7792 25.288L30.0352 26H32.2272L32.0032 25.376V22.12C32.0032 21.5333 31.9579 21.0507 31.8672 20.672C31.7766 20.288 31.6219 19.9733 31.4032 19.728C31.1899 19.4773 30.9099 19.3013 30.5632 19.2C30.2166 19.0933 29.7766 19.04 29.2432 19.04C28.6406 19.04 28.0486 19.1307 27.4672 19.312C26.8859 19.488 26.4139 19.6933 26.0512 19.928L26.5632 21.016C26.7659 20.9093 27.0459 20.8187 27.4032 20.744C27.7606 20.664 28.1046 20.624 28.4352 20.624C28.8192 20.624 29.0966 20.6907 29.2672 20.824C29.4432 20.9573 29.5312 21.1867 29.5312 21.512V21.656C29.3499 21.656 29.1606 21.664 28.9632 21.68C28.7659 21.696 28.5419 21.728 28.2912 21.776C28.0406 21.824 27.8006 21.8853 27.5712 21.96C27.3472 22.0293 27.1232 22.128 26.8992 22.256C26.6752 22.3787 26.4832 22.52 26.3232 22.68C26.1632 22.84 26.0326 23.0373 25.9312 23.272C25.8299 23.5013 25.7792 23.7547 25.7792 24.032C25.7792 25.456 26.4992 26.168 27.9392 26.168C28.1526 26.168 28.3606 26.136 28.5632 26.072C28.7659 26.0133 28.9366 25.9413 29.0752 25.856C29.2192 25.7707 29.3446 25.6853 29.4512 25.6C29.5632 25.5147 29.6459 25.44 29.6992 25.376L29.7792 25.288ZM29.1472 24.76C28.6939 24.76 28.4672 24.4267 28.4672 23.76C28.4672 23.3867 28.5632 23.112 28.7552 22.936C28.9472 22.7547 29.2059 22.664 29.5312 22.664V24.584C29.5312 24.584 29.5152 24.6 29.4832 24.632C29.4512 24.6587 29.4032 24.688 29.3392 24.72C29.2806 24.7467 29.2166 24.76 29.1472 24.76ZM35.6103 26V22.344C35.765 22.056 36.1143 21.912 36.6583 21.912C37.037 21.912 37.2823 21.9627 37.3943 22.064L37.6663 19.216C37.5223 19.168 37.3837 19.144 37.2503 19.144C36.0663 19.144 35.365 19.7973 35.1463 21.104L34.9143 19.2H34.2663L32.5463 19.624V20.528L33.0263 20.824V26H35.6103ZM41.0838 26V20.608H42.1158V19.2H41.0838V18.056C41.0838 17.4213 41.2891 17.072 41.6998 17.008C41.7584 16.9973 41.8224 16.992 41.8918 16.992C42.1638 16.992 42.4278 17.056 42.6838 17.184L42.9878 15.968C42.9078 15.888 42.7078 15.8 42.3878 15.704C42.0678 15.608 41.7264 15.56 41.3638 15.56C40.9584 15.56 40.5904 15.6107 40.2598 15.712C39.9344 15.808 39.6358 15.9653 39.3638 16.184C39.0971 16.4027 38.8891 16.7093 38.7398 17.104C38.5904 17.4987 38.5158 17.9653 38.5158 18.504V19.2L37.7078 19.544V20.608H38.4838V26H41.0838ZM46.0158 25.208C45.5251 25.208 45.2798 24.704 45.2798 23.696V21.096C45.2798 20.7547 45.3438 20.4907 45.4718 20.304C45.5998 20.1173 45.7784 20.024 46.0078 20.024C46.4984 20.024 46.7438 20.544 46.7438 21.584V24.112C46.7438 24.4533 46.6798 24.7227 46.5518 24.92C46.4291 25.112 46.2504 25.208 46.0158 25.208ZM45.9518 26.168C47.2158 26.168 48.1411 25.8747 48.7278 25.288C49.3198 24.7013 49.6158 23.7947 49.6158 22.568C49.6158 21.384 49.3358 20.5013 48.7758 19.92C48.2211 19.3333 47.3171 19.04 46.0638 19.04C44.7784 19.04 43.8504 19.3467 43.2798 19.96C42.7091 20.568 42.4238 21.4747 42.4238 22.68C42.4238 23.896 42.7064 24.7813 43.2718 25.336C43.8371 25.8907 44.7304 26.168 45.9518 26.168ZM53.0713 26V22.344C53.2259 22.056 53.5753 21.912 54.1193 21.912C54.4979 21.912 54.7433 21.9627 54.8553 22.064L55.1273 19.216C54.9833 19.168 54.8446 19.144 54.7113 19.144C53.5273 19.144 52.8259 19.7973 52.6073 21.104L52.3753 19.2H51.7273L50.0073 19.624V20.528L50.4873 20.824V26H53.0713ZM58.8407 28.824C61.0594 28.824 62.1687 27.784 62.1687 25.704V20.36L62.6487 20.024V19.272L61.1447 19.2H59.9207L59.7847 19.576C59.2994 19.2827 58.7261 19.136 58.0647 19.136C57.6274 19.136 57.2354 19.2293 56.8887 19.416C56.5421 19.5973 56.2594 19.8507 56.0407 20.176C55.8274 20.496 55.6647 20.8693 55.5527 21.296C55.4407 21.7173 55.3847 22.1787 55.3847 22.68C55.3847 23.752 55.5901 24.5893 56.0007 25.192C56.4114 25.7947 57.0567 26.096 57.9367 26.096C58.5874 26.096 59.1394 25.8613 59.5927 25.392V26.072C59.5874 26.1893 59.5767 26.296 59.5607 26.392C59.5501 26.488 59.5181 26.5947 59.4647 26.712C59.4114 26.8347 59.3421 26.936 59.2567 27.016C59.1714 27.1013 59.0487 27.1707 58.8887 27.224C58.7341 27.2827 58.5501 27.312 58.3367 27.312C58.1234 27.312 57.8674 27.2693 57.5687 27.184C57.2701 27.0987 57.0541 27.0053 56.9207 26.904L56.4167 28C56.5714 28.1707 56.9101 28.3493 57.4327 28.536C57.9554 28.728 58.4247 28.824 58.8407 28.824ZM59.0967 24.64C58.7287 24.64 58.4647 24.4293 58.3047 24.008C58.2141 23.7627 58.1687 23.4693 58.1687 23.128V21.888C58.1741 20.8 58.5314 20.2533 59.2407 20.248C59.3474 20.248 59.4647 20.2613 59.5927 20.288V24.504C59.4221 24.5947 59.2567 24.64 59.0967 24.64ZM66.8762 21.864H65.6602V21.192C65.6602 21 65.6655 20.8427 65.6762 20.72C65.6922 20.592 65.7242 20.4693 65.7722 20.352C65.8202 20.2293 65.8948 20.1413 65.9962 20.088C66.0975 20.0293 66.2282 20 66.3882 20C66.5748 20 66.7028 20.1413 66.7722 20.424C66.8415 20.7067 66.8762 21.1867 66.8762 21.864ZM66.2362 26.168C66.5562 26.168 66.8922 26.1307 67.2442 26.056C67.5962 25.9813 67.9615 25.8373 68.3402 25.624C68.7242 25.4053 69.0148 25.136 69.2122 24.816L68.7402 24.008C68.5908 24.1467 68.4042 24.2667 68.1802 24.368C67.9615 24.4693 67.7428 24.544 67.5242 24.592C67.3108 24.64 67.1108 24.664 66.9242 24.664C66.7322 24.664 66.5695 24.648 66.4362 24.616C66.3028 24.584 66.1722 24.52 66.0442 24.424C65.9162 24.328 65.8175 24.1787 65.7482 23.976C65.6842 23.7733 65.6522 23.5147 65.6522 23.2V23.048H69.3082V22.16C69.3082 21.0667 69.0815 20.2747 68.6282 19.784C68.1748 19.288 67.4228 19.04 66.3722 19.04C65.2788 19.04 64.4282 19.3467 63.8202 19.96C63.2122 20.5733 62.9082 21.4773 62.9082 22.672C62.9082 23.1733 62.9668 23.6293 63.0842 24.04C63.2015 24.4453 63.3855 24.8107 63.6362 25.136C63.8922 25.4613 64.2388 25.7147 64.6762 25.896C65.1188 26.0773 65.6388 26.168 66.2362 26.168Z" fill="#D36135"/>
<path d="M19.5779 32.0455C19.3734 32.0455 19.1973 31.9972 19.0495 31.9006C18.9018 31.804 18.7882 31.6709 18.7086 31.5014C18.6291 31.3319 18.5893 31.1383 18.5893 30.9205C18.5893 30.6989 18.63 30.5033 18.7115 30.3338C18.7939 30.1634 18.9084 30.0303 19.0552 29.9347C19.2029 29.8381 19.3753 29.7898 19.5723 29.7898C19.7257 29.7898 19.8639 29.8182 19.987 29.875C20.1101 29.9318 20.211 30.0114 20.2896 30.1136C20.3682 30.2159 20.417 30.3352 20.4359 30.4716H20.1007C20.0751 30.3722 20.0183 30.2841 19.9302 30.2074C19.8431 30.1297 19.7257 30.0909 19.5779 30.0909C19.4473 30.0909 19.3327 30.125 19.2342 30.1932C19.1367 30.2604 19.0604 30.3556 19.0055 30.4787C18.9515 30.6009 18.9245 30.7443 18.9245 30.9091C18.9245 31.0777 18.9511 31.2244 19.0041 31.3494C19.0581 31.4744 19.1338 31.5715 19.2314 31.6406C19.3298 31.7098 19.4454 31.7443 19.5779 31.7443C19.6651 31.7443 19.7441 31.7292 19.8152 31.6989C19.8862 31.6686 19.9463 31.625 19.9956 31.5682C20.0448 31.5114 20.0798 31.4432 20.1007 31.3636H20.4359C20.417 31.4924 20.3701 31.6084 20.2953 31.7116C20.2214 31.8139 20.1234 31.8954 20.0012 31.956C19.88 32.0156 19.7389 32.0455 19.5779 32.0455ZM20.7541 30.1307V29.8182H22.5268V30.1307H21.8109V32H21.4757V30.1307H20.7541ZM23.0158 32.8182V29.8182H23.3397V30.1648H23.3794C23.4041 30.1269 23.4382 30.0786 23.4817 30.0199C23.5262 29.9602 23.5897 29.9072 23.6721 29.8608C23.7554 29.8134 23.8681 29.7898 24.0101 29.7898C24.1938 29.7898 24.3558 29.8357 24.4959 29.9276C24.6361 30.0194 24.7454 30.1496 24.824 30.3182C24.9026 30.4867 24.9419 30.6856 24.9419 30.9148C24.9419 31.1458 24.9026 31.3461 24.824 31.5156C24.7454 31.6842 24.6365 31.8149 24.4973 31.9077C24.3581 31.9995 24.1976 32.0455 24.0158 32.0455C23.8757 32.0455 23.7634 32.0223 23.6792 31.9759C23.5949 31.9285 23.53 31.875 23.4846 31.8153C23.4391 31.7547 23.4041 31.7045 23.3794 31.6648H23.351V32.8182H23.0158ZM23.3453 30.9091C23.3453 31.0739 23.3695 31.2192 23.4178 31.3452C23.4661 31.4702 23.5366 31.5682 23.6294 31.6392C23.7222 31.7093 23.8359 31.7443 23.9703 31.7443C24.1105 31.7443 24.2275 31.7074 24.3212 31.6335C24.4159 31.5587 24.4869 31.4583 24.5343 31.3324C24.5826 31.2055 24.6067 31.0644 24.6067 30.9091C24.6067 30.7557 24.583 30.6174 24.5357 30.4943C24.4893 30.3703 24.4187 30.2723 24.324 30.2003C24.2303 30.1274 24.1124 30.0909 23.9703 30.0909C23.834 30.0909 23.7194 30.1255 23.6266 30.1946C23.5338 30.2628 23.4637 30.3584 23.4164 30.4815C23.369 30.6037 23.3453 30.7462 23.3453 30.9091ZM26.3397 32.0455C26.1427 32.0455 25.9699 31.9986 25.8212 31.9048C25.6735 31.8111 25.5579 31.6799 25.4746 31.5114C25.3922 31.3428 25.351 31.1458 25.351 30.9205C25.351 30.6932 25.3922 30.4948 25.4746 30.3253C25.5579 30.1558 25.6735 30.0241 25.8212 29.9304C25.9699 29.8366 26.1427 29.7898 26.3397 29.7898C26.5366 29.7898 26.709 29.8366 26.8567 29.9304C27.0054 30.0241 27.1209 30.1558 27.2033 30.3253C27.2866 30.4948 27.3283 30.6932 27.3283 30.9205C27.3283 31.1458 27.2866 31.3428 27.2033 31.5114C27.1209 31.6799 27.0054 31.8111 26.8567 31.9048C26.709 31.9986 26.5366 32.0455 26.3397 32.0455ZM26.3397 31.7443C26.4893 31.7443 26.6124 31.706 26.709 31.6293C26.8056 31.5526 26.8771 31.4517 26.9235 31.3267C26.9699 31.2017 26.9931 31.0663 26.9931 30.9205C26.9931 30.7746 26.9699 30.6387 26.9235 30.5128C26.8771 30.3868 26.8056 30.285 26.709 30.2074C26.6124 30.1297 26.4893 30.0909 26.3397 30.0909C26.19 30.0909 26.0669 30.1297 25.9703 30.2074C25.8738 30.285 25.8023 30.3868 25.7559 30.5128C25.7095 30.6387 25.6863 30.7746 25.6863 30.9205C25.6863 31.0663 25.7095 31.2017 25.7559 31.3267C25.8023 31.4517 25.8738 31.5526 25.9703 31.6293C26.0669 31.706 26.19 31.7443 26.3397 31.7443ZM28.1752 31.5057L29.2264 29.8182H29.6127V32H29.2775V30.3125L28.2321 32H27.84V29.8182H28.1752V31.5057ZM29.9299 30.1307V29.8182H31.7026V30.1307H30.9867V32H30.6515V30.1307H29.9299ZM32.9931 32.0455C32.7828 32.0455 32.6015 31.9991 32.449 31.9062C32.2975 31.8125 32.1806 31.6818 32.0982 31.5142C32.0167 31.3456 31.976 31.1496 31.976 30.9261C31.976 30.7027 32.0167 30.5057 32.0982 30.3352C32.1806 30.1638 32.2952 30.0303 32.4419 29.9347C32.5897 29.8381 32.762 29.7898 32.959 29.7898C33.0726 29.7898 33.1848 29.8087 33.2956 29.8466C33.4064 29.8845 33.5073 29.946 33.5982 30.0312C33.6891 30.1155 33.7615 30.2273 33.8155 30.3665C33.8695 30.5057 33.8965 30.6771 33.8965 30.8807V31.0227H32.2147V30.733H33.5556C33.5556 30.6098 33.531 30.5 33.4817 30.4034C33.4334 30.3068 33.3643 30.2306 33.2743 30.1747C33.1853 30.1188 33.0802 30.0909 32.959 30.0909C32.8255 30.0909 32.7099 30.1241 32.6124 30.1903C32.5158 30.2557 32.4415 30.3409 32.3894 30.446C32.3373 30.5511 32.3113 30.6638 32.3113 30.7841V30.9773C32.3113 31.142 32.3397 31.2817 32.3965 31.3963C32.4542 31.5099 32.5343 31.5966 32.6365 31.6562C32.7388 31.715 32.8577 31.7443 32.9931 31.7443C33.0811 31.7443 33.1607 31.732 33.2317 31.7074C33.3037 31.6818 33.3657 31.6439 33.4178 31.5938C33.4699 31.5426 33.5101 31.4792 33.5385 31.4034L33.8624 31.4943C33.8283 31.6042 33.771 31.7008 33.6905 31.7841C33.61 31.8665 33.5106 31.9309 33.3922 31.9773C33.2739 32.0227 33.1408 32.0455 32.9931 32.0455ZM34.2132 32V31.6875H34.2928C34.3581 31.6875 34.4126 31.6747 34.4561 31.6491C34.4997 31.6226 34.5347 31.5767 34.5613 31.5114C34.5887 31.4451 34.6096 31.3532 34.6238 31.2358C34.6389 31.1174 34.6498 30.9669 34.6564 30.7841L34.6962 29.8182H36.1507V32H35.8155V30.1307H35.0144L34.9803 30.9091C34.9727 31.0881 34.9566 31.2457 34.932 31.3821C34.9083 31.5175 34.8719 31.6312 34.8226 31.723C34.7743 31.8149 34.7099 31.884 34.6294 31.9304C34.5489 31.9768 34.4481 32 34.3269 32H34.2132ZM37.0556 30.608H37.6806C37.9363 30.608 38.1318 30.6728 38.2672 30.8026C38.4026 30.9323 38.4703 31.0966 38.4703 31.2955C38.4703 31.4261 38.44 31.545 38.3794 31.652C38.3188 31.758 38.2298 31.8428 38.1124 31.9062C37.995 31.9688 37.851 32 37.6806 32H36.7658V29.8182H37.101V31.6875H37.6806C37.8132 31.6875 37.9221 31.6525 38.0073 31.5824C38.0925 31.5123 38.1351 31.4223 38.1351 31.3125C38.1351 31.197 38.0925 31.1027 38.0073 31.0298C37.9221 30.9569 37.8132 30.9205 37.6806 30.9205H37.0556V30.608ZM40.4409 30.7557V31.0682H39.2363V30.7557H40.4409ZM39.3159 29.8182V32H38.9806V29.8182H39.3159ZM40.6966 29.8182V32H40.3613V29.8182H40.6966ZM41.9508 32.0511C41.8126 32.0511 41.6871 32.0251 41.5744 31.973C41.4617 31.92 41.3722 31.8438 41.3059 31.7443C41.2396 31.6439 41.2065 31.5227 41.2065 31.3807C41.2065 31.2557 41.2311 31.1544 41.2804 31.0767C41.3296 30.9981 41.3954 30.9366 41.4778 30.892C41.5602 30.8475 41.6511 30.8144 41.7505 30.7926C41.8509 30.7699 41.9518 30.7519 42.0531 30.7386C42.1857 30.7216 42.2931 30.7088 42.3755 30.7003C42.4589 30.6908 42.5195 30.6752 42.5574 30.6534C42.5962 30.6316 42.6156 30.5937 42.6156 30.5398V30.5284C42.6156 30.3883 42.5772 30.2794 42.5005 30.2017C42.4248 30.1241 42.3097 30.0852 42.1554 30.0852C41.9953 30.0852 41.8699 30.1203 41.7789 30.1903C41.688 30.2604 41.6241 30.3352 41.5872 30.4148L41.269 30.3011C41.3258 30.1686 41.4016 30.0653 41.4963 29.9915C41.5919 29.9167 41.6961 29.8646 41.8088 29.8352C41.9224 29.8049 42.0342 29.7898 42.144 29.7898C42.2141 29.7898 42.2946 29.7983 42.3855 29.8153C42.4773 29.8314 42.5659 29.8651 42.6511 29.9162C42.7373 29.9673 42.8088 30.0445 42.8656 30.1477C42.9224 30.2509 42.9508 30.3892 42.9508 30.5625V32H42.6156V31.7045H42.5985C42.5758 31.7519 42.5379 31.8026 42.4849 31.8565C42.4319 31.9105 42.3613 31.9564 42.2733 31.9943C42.1852 32.0322 42.0777 32.0511 41.9508 32.0511ZM42.002 31.75C42.1345 31.75 42.2463 31.724 42.3372 31.6719C42.429 31.6198 42.4982 31.5526 42.5446 31.4702C42.5919 31.3878 42.6156 31.3011 42.6156 31.2102V30.9034C42.6014 30.9205 42.5701 30.9361 42.5218 30.9503C42.4745 30.9635 42.4196 30.9754 42.3571 30.9858C42.2955 30.9953 42.2354 31.0038 42.1767 31.0114C42.1189 31.018 42.072 31.0237 42.036 31.0284C41.9489 31.0398 41.8675 31.0582 41.7917 31.0838C41.7169 31.1084 41.6563 31.1458 41.6099 31.196C41.5645 31.2453 41.5417 31.3125 41.5417 31.3977C41.5417 31.5142 41.5848 31.6023 41.671 31.6619C41.7581 31.7206 41.8684 31.75 42.002 31.75ZM44.8752 32V30.125H44.2956C44.165 30.125 44.0622 30.1553 43.9874 30.2159C43.9126 30.2765 43.8752 30.3598 43.8752 30.4659C43.8752 30.5701 43.9088 30.652 43.976 30.7116C44.0442 30.7713 44.1375 30.8011 44.2559 30.8011H44.9604V31.1136H44.2559C44.1081 31.1136 43.9808 31.0876 43.8738 31.0355C43.7667 30.9834 43.6844 30.9091 43.6266 30.8125C43.5688 30.715 43.54 30.5994 43.54 30.4659C43.54 30.3314 43.5703 30.2159 43.6309 30.1193C43.6915 30.0227 43.7781 29.9484 43.8908 29.8963C44.0044 29.8442 44.1394 29.8182 44.2956 29.8182H45.1934V32H44.8752ZM43.4206 32L44.04 30.9148H44.4036L43.7843 32H43.4206ZM46.9338 32V29.8182H47.269V30.767H47.4906L48.2747 29.8182H48.7065L47.8258 30.8693L48.7179 32H48.286L47.5701 31.0795H47.269V32H46.9338ZM49.8787 32.0455C49.6818 32.0455 49.5089 31.9986 49.3603 31.9048C49.2125 31.8111 49.097 31.6799 49.0137 31.5114C48.9313 31.3428 48.8901 31.1458 48.8901 30.9205C48.8901 30.6932 48.9313 30.4948 49.0137 30.3253C49.097 30.1558 49.2125 30.0241 49.3603 29.9304C49.5089 29.8366 49.6818 29.7898 49.8787 29.7898C50.0757 29.7898 50.248 29.8366 50.3958 29.9304C50.5444 30.0241 50.66 30.1558 50.7424 30.3253C50.8257 30.4948 50.8674 30.6932 50.8674 30.9205C50.8674 31.1458 50.8257 31.3428 50.7424 31.5114C50.66 31.6799 50.5444 31.8111 50.3958 31.9048C50.248 31.9986 50.0757 32.0455 49.8787 32.0455ZM49.8787 31.7443C50.0283 31.7443 50.1515 31.706 50.248 31.6293C50.3446 31.5526 50.4161 31.4517 50.4625 31.3267C50.5089 31.2017 50.5321 31.0663 50.5321 30.9205C50.5321 30.7746 50.5089 30.6387 50.4625 30.5128C50.4161 30.3868 50.3446 30.285 50.248 30.2074C50.1515 30.1297 50.0283 30.0909 49.8787 30.0909C49.7291 30.0909 49.606 30.1297 49.5094 30.2074C49.4128 30.285 49.3413 30.3868 49.2949 30.5128C49.2485 30.6387 49.2253 30.7746 49.2253 30.9205C49.2253 31.0663 49.2485 31.2017 49.2949 31.3267C49.3413 31.4517 49.4128 31.5526 49.5094 31.6293C49.606 31.706 49.7291 31.7443 49.8787 31.7443ZM52.5723 31.5455L53.3336 29.8182H53.6518L52.7086 32H52.4359L51.5098 29.8182H51.8223L52.5723 31.5455ZM51.7143 29.8182V32H51.3791V29.8182H51.7143ZM53.4302 32V29.8182H53.7654V32H53.4302ZM54.3791 32V29.8182H56.095V32H55.7598V30.1307H54.7143V32H54.3791ZM57.3493 32.0511C57.211 32.0511 57.0855 32.0251 56.9728 31.973C56.8601 31.92 56.7707 31.8438 56.7044 31.7443C56.6381 31.6439 56.6049 31.5227 56.6049 31.3807C56.6049 31.2557 56.6296 31.1544 56.6788 31.0767C56.728 30.9981 56.7939 30.9366 56.8762 30.892C56.9586 30.8475 57.0495 30.8144 57.149 30.7926C57.2493 30.7699 57.3502 30.7519 57.4515 30.7386C57.5841 30.7216 57.6916 30.7088 57.774 30.7003C57.8573 30.6908 57.9179 30.6752 57.9558 30.6534C57.9946 30.6316 58.014 30.5937 58.014 30.5398V30.5284C58.014 30.3883 57.9757 30.2794 57.899 30.2017C57.8232 30.1241 57.7082 30.0852 57.5538 30.0852C57.3938 30.0852 57.2683 30.1203 57.1774 30.1903C57.0865 30.2604 57.0225 30.3352 56.9856 30.4148L56.6674 30.3011C56.7243 30.1686 56.8 30.0653 56.8947 29.9915C56.9904 29.9167 57.0945 29.8646 57.2072 29.8352C57.3208 29.8049 57.4326 29.7898 57.5424 29.7898C57.6125 29.7898 57.693 29.7983 57.7839 29.8153C57.8758 29.8314 57.9643 29.8651 58.0495 29.9162C58.1357 29.9673 58.2072 30.0445 58.264 30.1477C58.3208 30.2509 58.3493 30.3892 58.3493 30.5625V32H58.014V31.7045H57.997C57.9743 31.7519 57.9364 31.8026 57.8833 31.8565C57.8303 31.9105 57.7598 31.9564 57.6717 31.9943C57.5836 32.0322 57.4761 32.0511 57.3493 32.0511ZM57.4004 31.75C57.533 31.75 57.6447 31.724 57.7356 31.6719C57.8275 31.6198 57.8966 31.5526 57.943 31.4702C57.9904 31.3878 58.014 31.3011 58.014 31.2102V30.9034C57.9998 30.9205 57.9686 30.9361 57.9203 30.9503C57.8729 30.9635 57.818 30.9754 57.7555 30.9858C57.694 30.9953 57.6338 31.0038 57.5751 31.0114C57.5173 31.018 57.4705 31.0237 57.4345 31.0284C57.3474 31.0398 57.2659 31.0582 57.1902 31.0838C57.1154 31.1084 57.0547 31.1458 57.0083 31.196C56.9629 31.2453 56.9402 31.3125 56.9402 31.3977C56.9402 31.5142 56.9833 31.6023 57.0694 31.6619C57.1565 31.7206 57.2669 31.75 57.4004 31.75ZM60.4213 30.7557V31.0682H59.2168V30.7557H60.4213ZM59.2963 29.8182V32H58.9611V29.8182H59.2963ZM60.677 29.8182V32H60.3418V29.8182H60.677ZM61.6245 31.5057L62.6756 29.8182H63.062V32H62.7267V30.3125L61.6813 32H61.2892V29.8182H61.6245V31.5057ZM64.9885 32V30.125H64.4089C64.2782 30.125 64.1755 30.1553 64.1007 30.2159C64.0259 30.2765 63.9885 30.3598 63.9885 30.4659C63.9885 30.5701 64.0221 30.652 64.0893 30.7116C64.1575 30.7713 64.2508 30.8011 64.3691 30.8011H65.0737V31.1136H64.3691C64.2214 31.1136 64.094 31.0876 63.987 31.0355C63.88 30.9834 63.7976 30.9091 63.7399 30.8125C63.6821 30.715 63.6532 30.5994 63.6532 30.4659C63.6532 30.3314 63.6835 30.2159 63.7441 30.1193C63.8047 30.0227 63.8914 29.9484 64.0041 29.8963C64.1177 29.8442 64.2527 29.8182 64.4089 29.8182H65.3066V32H64.9885ZM63.5339 32L64.1532 30.9148H64.5169L63.8975 32H63.5339Z" fill="#F7FF58"/>
<path d="M42 9L42.4137 11.5863L45 12L42.4137 12.4137L42 15L41.5863 12.4137L39 12L41.5863 11.5863L42 9Z" fill="#F7FF58"/>
<defs>
<filter id="filter0_d_0_941" x="0" y="0" width="84" height="45" filterUnits="userSpaceOnUse" color-interpolation-filters="sRGB">
<feFlood flood-opacity="0" result="BackgroundImageFix"/>
<feColorMatrix in="SourceAlpha" type="matrix" values="0 0 0 0 0 0 0 0 0 0 0 0 0 0 0 0 0 0 127 0" result="hardAlpha"/>
<feOffset/>
<feGaussianBlur stdDeviation="2"/>
<feComposite in2="hardAlpha" operator="out"/>
<feColorMatrix type="matrix" values="0 0 0 0 0 0 0 0 0 0 0 0 0 0 0 0 0 0 0.15 0"/>
<feBlend mode="normal" in2="BackgroundImageFix" result="effect1_dropShadow_0_941"/>
<feBlend mode="normal" in="SourceGraphic" in2="effect1_dropShadow_0_941" result="shape"/>
</filter>
</defs>
</svg>
