<svg width="84" height="45" viewBox="0 0 84 45" fill="none" xmlns="http://www.w3.org/2000/svg">
<g filter="url(#filter0_d_0_948)">
<rect x="4" y="4" width="76" height="37" rx="3" fill="#00407D"/>
<rect x="4.5" y="4.5" width="75" height="36" rx="2.5" stroke="white"/>
</g>
<path d="M16.2578 27H14.5659C14.522 27 14.5 26.9756 14.5 26.9268V18.3721H12.5518C12.5029 18.3721 12.4785 18.3477 12.4785 18.2988L12.4932 16.6216C12.4932 16.5825 12.5127 16.563 12.5518 16.563H18.25C18.3037 16.563 18.3306 16.5825 18.3306 16.6216V18.2988C18.3306 18.3477 18.311 18.3721 18.272 18.3721H16.3018L16.3164 26.9268C16.3164 26.9756 16.2969 27 16.2578 27ZM23.2368 27H19.0347C19.0008 27 18.9839 26.9788 18.9839 26.9365L18.9966 18.0054C18.9966 17.9715 19.0135 17.9546 19.0474 17.9546H23.2241C23.258 17.9546 23.2749 17.9757 23.2749 18.0181V19.4717C23.2749 19.5055 23.258 19.5225 23.2241 19.5225H20.5581V21.5537H23.2241C23.258 21.5537 23.2749 21.5706 23.2749 21.6045L23.2876 23.0771C23.2876 23.111 23.2707 23.1279 23.2368 23.1279H20.5581V25.4004H23.2368C23.2707 25.4004 23.2876 25.4215 23.2876 25.4639V26.9492C23.2876 26.9831 23.2707 27 23.2368 27ZM25.9663 27H24.4937C24.4598 27 24.4429 26.9788 24.4429 26.9365L24.4683 18.0054C24.4683 17.9715 24.4852 17.9546 24.519 17.9546H27.147C27.6167 17.9546 28.0483 18.0688 28.4419 18.2974C28.8354 18.5259 29.1486 18.8327 29.3813 19.2178C29.6183 19.6029 29.7368 20.0387 29.7368 20.5254C29.7368 20.8428 29.6882 21.1305 29.5908 21.3887C29.4935 21.6468 29.3792 21.8647 29.248 22.0425C29.1211 22.2202 29.0047 22.3514 28.8989 22.436C29.3687 22.9565 29.6035 23.568 29.6035 24.2705L29.6162 26.9365C29.6162 26.9788 29.5951 27 29.5527 27H28.0801C28.0462 27 28.0293 26.9873 28.0293 26.9619V24.2705C28.0293 23.9574 27.9193 23.6865 27.6992 23.458C27.4792 23.2295 27.2083 23.1152 26.8867 23.1152H26.0298L26.0171 26.9365C26.0171 26.9788 26.0002 27 25.9663 27ZM27.147 19.5098H26.0298V21.5537H27.147C27.4136 21.5537 27.6506 21.4543 27.8579 21.2554C28.0695 21.0565 28.1753 20.8132 28.1753 20.5254C28.1753 20.2503 28.0737 20.0133 27.8706 19.8145C27.6675 19.6113 27.4263 19.5098 27.147 19.5098ZM32.2378 27H30.7651C30.7313 27 30.7144 26.9788 30.7144 26.9365L30.7397 18.0054C30.7397 17.9715 30.7567 17.9546 30.7905 17.9546H33.4185C33.8882 17.9546 34.3198 18.0688 34.7134 18.2974C35.1069 18.5259 35.4201 18.8327 35.6528 19.2178C35.8898 19.6029 36.0083 20.0387 36.0083 20.5254C36.0083 20.8428 35.9596 21.1305 35.8623 21.3887C35.765 21.6468 35.6507 21.8647 35.5195 22.0425C35.3926 22.2202 35.2762 22.3514 35.1704 22.436C35.6401 22.9565 35.875 23.568 35.875 24.2705L35.8877 26.9365C35.8877 26.9788 35.8665 27 35.8242 27H34.3516C34.3177 27 34.3008 26.9873 34.3008 26.9619V24.2705C34.3008 23.9574 34.1908 23.6865 33.9707 23.458C33.7507 23.2295 33.4798 23.1152 33.1582 23.1152H32.3013L32.2886 26.9365C32.2886 26.9788 32.2716 27 32.2378 27ZM33.4185 19.5098H32.3013V21.5537H33.4185C33.6851 21.5537 33.922 21.4543 34.1294 21.2554C34.341 21.0565 34.4468 20.8132 34.4468 20.5254C34.4468 20.2503 34.3452 20.0133 34.1421 19.8145C33.939 19.6113 33.6978 19.5098 33.4185 19.5098ZM36.2812 26.9365L37.8936 18.0054C37.902 17.9715 37.9232 17.9546 37.957 17.9546H39.8423C39.8761 17.9546 39.8973 17.9715 39.9058 18.0054L41.4546 26.9365C41.4588 26.9788 41.4419 27 41.4038 27H39.9629C39.9206 27 39.8973 26.9788 39.8931 26.9365L39.7534 25.9844H37.9824L37.8428 26.9365C37.8385 26.9788 37.8174 27 37.7793 27H36.332C36.2982 27 36.2812 26.9788 36.2812 26.9365ZM38.8267 20.9443L38.2427 24.5942H39.4932L38.96 20.9443L38.8838 20.4619L38.8267 20.9443ZM44.6475 27.127C44.1777 27.127 43.7546 27.0106 43.3779 26.7778C42.9971 26.5451 42.6903 26.2319 42.4575 25.8384C42.229 25.4448 42.1147 25.0047 42.1147 24.5181V20.3984C42.1147 19.9245 42.2311 19.4928 42.4639 19.1035C42.6924 18.71 42.9992 18.3968 43.3843 18.1641C43.7694 17.9271 44.1904 17.8086 44.6475 17.8086C45.1257 17.8086 45.5573 17.9229 45.9424 18.1514C46.3275 18.3841 46.6322 18.6951 46.8564 19.0845C47.085 19.4738 47.1992 19.9118 47.1992 20.3984V20.9951C47.1992 21.029 47.1781 21.0459 47.1357 21.0459H45.6758C45.6419 21.0459 45.625 21.029 45.625 20.9951V20.5C45.625 20.1699 45.5319 19.897 45.3457 19.6812C45.1595 19.4653 44.9268 19.3574 44.6475 19.3574C44.3978 19.3574 44.1756 19.4611 43.981 19.6685C43.7863 19.8758 43.689 20.1191 43.689 20.3984V24.5181C43.689 24.8016 43.7842 25.047 43.9746 25.2544C44.165 25.4575 44.3893 25.5591 44.6475 25.5591C44.9268 25.5591 45.1595 25.4596 45.3457 25.2607C45.5319 25.0576 45.625 24.8101 45.625 24.5181V23.877H44.7173C44.6707 23.877 44.6475 23.8558 44.6475 23.8135V22.3599C44.6475 22.3175 44.6707 22.2964 44.7173 22.2964H47.1484C47.1823 22.2964 47.1992 22.3175 47.1992 22.3599V24.5181C47.1992 25.0047 47.085 25.4448 46.8564 25.8384C46.6237 26.2319 46.3169 26.5451 45.936 26.7778C45.5552 27.0106 45.1257 27.127 44.6475 27.127ZM50.5127 27.127C50.0557 27.127 49.6325 27.0085 49.2432 26.7715C48.8538 26.5345 48.5428 26.2171 48.3101 25.8193C48.0815 25.4173 47.9673 24.9793 47.9673 24.5054L47.9927 18.0054C47.9927 17.9715 48.0096 17.9546 48.0435 17.9546H49.5034C49.5373 17.9546 49.5542 17.9715 49.5542 18.0054V24.5054C49.5542 24.7974 49.6473 25.047 49.8335 25.2544C50.0197 25.4575 50.2461 25.5591 50.5127 25.5591C50.792 25.5591 51.0247 25.4575 51.2109 25.2544C51.3971 25.047 51.4902 24.7974 51.4902 24.5054V18.0054C51.4902 17.9715 51.5072 17.9546 51.541 17.9546H53.001C53.0348 17.9546 53.0518 17.9715 53.0518 18.0054L53.0771 24.5054C53.0771 24.9836 52.9629 25.4237 52.7344 25.8257C52.5016 26.2235 52.1927 26.5409 51.8076 26.7778C51.4225 27.0106 50.9909 27.127 50.5127 27.127ZM53.6611 26.9365L55.2734 18.0054C55.2819 17.9715 55.3031 17.9546 55.3369 17.9546H57.2222C57.256 17.9546 57.2772 17.9715 57.2856 18.0054L58.8345 26.9365C58.8387 26.9788 58.8218 27 58.7837 27H57.3428C57.3005 27 57.2772 26.9788 57.2729 26.9365L57.1333 25.9844H55.3623L55.2227 26.9365C55.2184 26.9788 55.1973 27 55.1592 27H53.7119C53.6781 27 53.6611 26.9788 53.6611 26.9365ZM56.2065 20.9443L55.6226 24.5942H56.873L56.3398 20.9443L56.2637 20.4619L56.2065 20.9443ZM61.1704 27H59.6978C59.6639 27 59.647 26.9788 59.647 26.9365L59.6724 18.0054C59.6724 17.9715 59.6893 17.9546 59.7231 17.9546H62.3511C62.8208 17.9546 63.2524 18.0688 63.646 18.2974C64.0396 18.5259 64.3527 18.8327 64.5854 19.2178C64.8224 19.6029 64.9409 20.0387 64.9409 20.5254C64.9409 20.8428 64.8923 21.1305 64.7949 21.3887C64.6976 21.6468 64.5833 21.8647 64.4521 22.0425C64.3252 22.2202 64.2088 22.3514 64.103 22.436C64.5728 22.9565 64.8076 23.568 64.8076 24.2705L64.8203 26.9365C64.8203 26.9788 64.7992 27 64.7568 27H63.2842C63.2503 27 63.2334 26.9873 63.2334 26.9619V24.2705C63.2334 23.9574 63.1234 23.6865 62.9033 23.458C62.6833 23.2295 62.4124 23.1152 62.0908 23.1152H61.2339L61.2212 26.9365C61.2212 26.9788 61.2043 27 61.1704 27ZM62.3511 19.5098H61.2339V21.5537H62.3511C62.6177 21.5537 62.8547 21.4543 63.062 21.2554C63.2736 21.0565 63.3794 20.8132 63.3794 20.5254C63.3794 20.2503 63.2778 20.0133 63.0747 19.8145C62.8716 19.6113 62.6304 19.5098 62.3511 19.5098ZM68.3115 26.9873L65.9819 27C65.9396 27 65.9185 26.9788 65.9185 26.9365L65.9438 18.0054C65.9438 17.9715 65.9608 17.9546 65.9946 17.9546L68.4258 17.9419C68.9082 17.9292 69.3441 18.0392 69.7334 18.272C70.127 18.5047 70.4401 18.82 70.6729 19.2178C70.9098 19.6113 71.0283 20.0472 71.0283 20.5254V24.2578C71.0283 24.7572 70.9077 25.2142 70.6665 25.6289C70.4211 26.0394 70.0952 26.3674 69.689 26.6128C69.2827 26.854 68.8236 26.9788 68.3115 26.9873ZM68.4258 19.4971L67.5181 19.5098L67.5054 25.4004H68.3115C68.6331 25.4004 68.904 25.2882 69.124 25.064C69.3441 24.8397 69.4541 24.571 69.4541 24.2578V20.5127C69.4541 20.2376 69.3525 19.9985 69.1494 19.7954C68.9463 19.5881 68.7051 19.4886 68.4258 19.4971Z" fill="white"/>
<path d="M18.5281 33.02C18.3201 33.02 18.1335 32.9747 17.9681 32.884C17.8055 32.7907 17.6775 32.664 17.5841 32.504C17.4908 32.3413 17.4441 32.156 17.4441 31.948C17.4441 31.7373 17.4908 31.552 17.5841 31.392C17.6775 31.232 17.8055 31.1067 17.9681 31.016C18.1335 30.9253 18.3201 30.88 18.5281 30.88C18.7068 30.88 18.8681 30.9147 19.0121 30.984C19.1561 31.0533 19.2695 31.1573 19.3521 31.296L19.1401 31.44C19.0681 31.3333 18.9788 31.2547 18.8721 31.204C18.7655 31.1533 18.6495 31.128 18.5241 31.128C18.3748 31.128 18.2401 31.1627 18.1201 31.232C18.0001 31.2987 17.9055 31.3933 17.8361 31.516C17.7668 31.6387 17.7321 31.7827 17.7321 31.948C17.7321 32.1133 17.7668 32.2573 17.8361 32.38C17.9055 32.5027 18.0001 32.5987 18.1201 32.668C18.2401 32.7347 18.3748 32.768 18.5241 32.768C18.6495 32.768 18.7655 32.7427 18.8721 32.692C18.9788 32.6413 19.0681 32.564 19.1401 32.46L19.3521 32.604C19.2695 32.74 19.1561 32.844 19.0121 32.916C18.8681 32.9853 18.7068 33.02 18.5281 33.02ZM20.263 33V31.072L20.335 31.148H19.467V30.9H21.343V31.148H20.475L20.547 31.072V33H20.263ZM22.8376 33.02C22.6563 33.02 22.4923 32.9787 22.3456 32.896C22.1989 32.8107 22.0816 32.6893 21.9936 32.532C21.9083 32.372 21.8656 32.1773 21.8656 31.948C21.8656 31.7187 21.9083 31.5253 21.9936 31.368C22.0789 31.208 22.1949 31.0867 22.3416 31.004C22.4883 30.9213 22.6536 30.88 22.8376 30.88C23.0376 30.88 23.2163 30.9253 23.3736 31.016C23.5336 31.104 23.6589 31.2293 23.7496 31.392C23.8403 31.552 23.8856 31.7373 23.8856 31.948C23.8856 32.1613 23.8403 32.348 23.7496 32.508C23.6589 32.668 23.5336 32.7933 23.3736 32.884C23.2163 32.9747 23.0376 33.02 22.8376 33.02ZM21.7536 33.776V30.9H22.0256V31.532L21.9976 31.952L22.0376 32.376V33.776H21.7536ZM22.8176 32.768C22.9669 32.768 23.1003 32.7347 23.2176 32.668C23.3349 32.5987 23.4283 32.5027 23.4976 32.38C23.5669 32.2547 23.6016 32.1107 23.6016 31.948C23.6016 31.7853 23.5669 31.6427 23.4976 31.52C23.4283 31.3973 23.3349 31.3013 23.2176 31.232C23.1003 31.1627 22.9669 31.128 22.8176 31.128C22.6683 31.128 22.5336 31.1627 22.4136 31.232C22.2963 31.3013 22.2029 31.3973 22.1336 31.52C22.0669 31.6427 22.0336 31.7853 22.0336 31.948C22.0336 32.1107 22.0669 32.2547 22.1336 32.38C22.2029 32.5027 22.2963 32.5987 22.4136 32.668C22.5336 32.7347 22.6683 32.768 22.8176 32.768ZM25.3598 33.02C25.1571 33.02 24.9745 32.9747 24.8118 32.884C24.6518 32.7907 24.5251 32.664 24.4318 32.504C24.3385 32.3413 24.2918 32.156 24.2918 31.948C24.2918 31.7373 24.3385 31.552 24.4318 31.392C24.5251 31.232 24.6518 31.1067 24.8118 31.016C24.9718 30.9253 25.1545 30.88 25.3598 30.88C25.5678 30.88 25.7518 30.9253 25.9118 31.016C26.0745 31.1067 26.2011 31.232 26.2918 31.392C26.3851 31.552 26.4318 31.7373 26.4318 31.948C26.4318 32.156 26.3851 32.3413 26.2918 32.504C26.2011 32.664 26.0745 32.7907 25.9118 32.884C25.7491 32.9747 25.5651 33.02 25.3598 33.02ZM25.3598 32.768C25.5118 32.768 25.6465 32.7347 25.7638 32.668C25.8811 32.5987 25.9731 32.5027 26.0398 32.38C26.1091 32.2547 26.1438 32.1107 26.1438 31.948C26.1438 31.7827 26.1091 31.6387 26.0398 31.516C25.9731 31.3933 25.8811 31.2987 25.7638 31.232C25.6465 31.1627 25.5131 31.128 25.3638 31.128C25.2145 31.128 25.0811 31.1627 24.9638 31.232C24.8465 31.2987 24.7531 31.3933 24.6838 31.516C24.6145 31.6387 24.5798 31.7827 24.5798 31.948C24.5798 32.1107 24.6145 32.2547 24.6838 32.38C24.7531 32.5027 24.8465 32.5987 24.9638 32.668C25.0811 32.7347 25.2131 32.768 25.3598 32.768ZM27.0388 33V30.9H27.3228V32.568L28.7268 30.9H28.9788V33H28.6948V31.328L27.2948 33H27.0388ZM30.1927 33V31.072L30.2647 31.148H29.3967V30.9H31.2727V31.148H30.4047L30.4767 31.072V33H30.1927ZM32.4856 33.02C32.267 33.02 32.075 32.9747 31.9096 32.884C31.7443 32.7907 31.615 32.664 31.5216 32.504C31.4283 32.3413 31.3816 32.156 31.3816 31.948C31.3816 31.74 31.4256 31.556 31.5136 31.396C31.6043 31.236 31.727 31.1107 31.8816 31.02C32.039 30.9267 32.215 30.88 32.4096 30.88C32.607 30.88 32.7816 30.9253 32.9336 31.016C33.0883 31.104 33.2096 31.2293 33.2976 31.392C33.3856 31.552 33.4296 31.7373 33.4296 31.948C33.4296 31.9613 33.4283 31.976 33.4256 31.992C33.4256 32.0053 33.4256 32.02 33.4256 32.036H31.5976V31.824H33.2736L33.1616 31.908C33.1616 31.756 33.1283 31.6213 33.0616 31.504C32.9976 31.384 32.9096 31.2907 32.7976 31.224C32.6856 31.1573 32.5563 31.124 32.4096 31.124C32.2656 31.124 32.1363 31.1573 32.0216 31.224C31.907 31.2907 31.8176 31.384 31.7536 31.504C31.6896 31.624 31.6576 31.7613 31.6576 31.916V31.96C31.6576 32.12 31.6923 32.2613 31.7616 32.384C31.8336 32.504 31.9323 32.5987 32.0576 32.668C32.1856 32.7347 32.331 32.768 32.4936 32.768C32.6216 32.768 32.7403 32.7453 32.8496 32.7C32.9616 32.6547 33.0576 32.5853 33.1376 32.492L33.2976 32.676C33.2043 32.788 33.087 32.8733 32.9456 32.932C32.807 32.9907 32.6536 33.02 32.4856 33.02ZM33.6313 32.996L33.6513 32.752C33.67 32.7547 33.6873 32.7587 33.7033 32.764C33.722 32.7667 33.738 32.768 33.7513 32.768C33.8367 32.768 33.9047 32.736 33.9553 32.672C34.0087 32.608 34.0487 32.5227 34.0753 32.416C34.102 32.3093 34.1207 32.1893 34.1313 32.056C34.142 31.92 34.1513 31.784 34.1593 31.648L34.1953 30.9H35.7353V33H35.4513V31.064L35.5233 31.148H34.3793L34.4473 31.06L34.4153 31.668C34.4073 31.8493 34.3927 32.0227 34.3713 32.188C34.3527 32.3533 34.322 32.4987 34.2793 32.624C34.2393 32.7493 34.1833 32.848 34.1113 32.92C34.0393 32.9893 33.9473 33.024 33.8353 33.024C33.8033 33.024 33.77 33.0213 33.7353 33.016C33.7033 33.0107 33.6687 33.004 33.6313 32.996ZM37.4467 31.64C37.7107 31.6427 37.9107 31.7013 38.0467 31.816C38.1853 31.9307 38.2547 32.096 38.2547 32.312C38.2547 32.536 38.18 32.708 38.0307 32.828C37.884 32.948 37.6707 33.0067 37.3907 33.004L36.5427 33V30.9H36.8267V31.632L37.4467 31.64ZM37.3747 32.788C37.5693 32.7907 37.716 32.752 37.8147 32.672C37.916 32.5893 37.9667 32.4693 37.9667 32.312C37.9667 32.1547 37.9173 32.04 37.8187 31.968C37.72 31.8933 37.572 31.8547 37.3747 31.852L36.8267 31.844V32.78L37.3747 32.788ZM38.7966 33V30.9H39.0806V31.828H40.4046V30.9H40.6886V33H40.4046V32.072H39.0806V33H38.7966ZM42.7998 33V32.536L42.7878 32.46V31.684C42.7878 31.5053 42.7371 31.368 42.6358 31.272C42.5371 31.176 42.3891 31.128 42.1918 31.128C42.0558 31.128 41.9265 31.1507 41.8038 31.196C41.6811 31.2413 41.5771 31.3013 41.4918 31.376L41.3638 31.164C41.4705 31.0733 41.5985 31.004 41.7478 30.956C41.8971 30.9053 42.0545 30.88 42.2198 30.88C42.4918 30.88 42.7011 30.948 42.8478 31.084C42.9971 31.2173 43.0718 31.4213 43.0718 31.696V33H42.7998ZM42.0758 33.02C41.9185 33.02 41.7811 32.9947 41.6638 32.944C41.5491 32.8907 41.4611 32.8187 41.3998 32.728C41.3385 32.6347 41.3078 32.528 41.3078 32.408C41.3078 32.2987 41.3331 32.2 41.3838 32.112C41.4371 32.0213 41.5225 31.9493 41.6398 31.896C41.7598 31.84 41.9198 31.812 42.1198 31.812H42.8438V32.024H42.1278C41.9251 32.024 41.7838 32.06 41.7038 32.132C41.6265 32.204 41.5878 32.2933 41.5878 32.4C41.5878 32.52 41.6345 32.616 41.7278 32.688C41.8211 32.76 41.9518 32.796 42.1198 32.796C42.2798 32.796 42.4171 32.76 42.5318 32.688C42.6491 32.6133 42.7345 32.5067 42.7878 32.368L42.8518 32.564C42.7985 32.7027 42.7051 32.8133 42.5718 32.896C42.4411 32.9787 42.2758 33.02 42.0758 33.02ZM45.1838 33V32.244L45.2358 32.304H44.5238C44.2545 32.304 44.0438 32.2453 43.8918 32.128C43.7398 32.0107 43.6638 31.84 43.6638 31.616C43.6638 31.376 43.7452 31.1973 43.9078 31.08C44.0705 30.96 44.2878 30.9 44.5598 30.9H45.4438V33H45.1838ZM43.6478 33L44.2238 32.192H44.5198L43.9558 33H43.6478ZM45.1838 32.16V31.064L45.2358 31.148H44.5678C44.3732 31.148 44.2212 31.1853 44.1118 31.26C44.0052 31.3347 43.9518 31.456 43.9518 31.624C43.9518 31.936 44.1505 32.092 44.5478 32.092H45.2358L45.1838 32.16ZM48.8405 33L47.9765 31.96L48.2125 31.82L49.1765 33H48.8405ZM47.3005 33V30.9H47.5845V33H47.3005ZM47.4965 32.064V31.82H48.1725V32.064H47.4965ZM48.2365 31.98L47.9725 31.94L48.8085 30.9H49.1165L48.2365 31.98ZM50.4145 33.02C50.2118 33.02 50.0292 32.9747 49.8665 32.884C49.7065 32.7907 49.5798 32.664 49.4865 32.504C49.3932 32.3413 49.3465 32.156 49.3465 31.948C49.3465 31.7373 49.3932 31.552 49.4865 31.392C49.5798 31.232 49.7065 31.1067 49.8665 31.016C50.0265 30.9253 50.2092 30.88 50.4145 30.88C50.6225 30.88 50.8065 30.9253 50.9665 31.016C51.1292 31.1067 51.2558 31.232 51.3465 31.392C51.4398 31.552 51.4865 31.7373 51.4865 31.948C51.4865 32.156 51.4398 32.3413 51.3465 32.504C51.2558 32.664 51.1292 32.7907 50.9665 32.884C50.8038 32.9747 50.6198 33.02 50.4145 33.02ZM50.4145 32.768C50.5665 32.768 50.7012 32.7347 50.8185 32.668C50.9358 32.5987 51.0278 32.5027 51.0945 32.38C51.1638 32.2547 51.1985 32.1107 51.1985 31.948C51.1985 31.7827 51.1638 31.6387 51.0945 31.516C51.0278 31.3933 50.9358 31.2987 50.8185 31.232C50.7012 31.1627 50.5678 31.128 50.4185 31.128C50.2692 31.128 50.1358 31.1627 50.0185 31.232C49.9012 31.2987 49.8078 31.3933 49.7385 31.516C49.6692 31.6387 49.6345 31.7827 49.6345 31.948C49.6345 32.1107 49.6692 32.2547 49.7385 32.38C49.8078 32.5027 49.9012 32.5987 50.0185 32.668C50.1358 32.7347 50.2678 32.768 50.4145 32.768ZM52.0935 33V30.9H52.3815L53.3335 32.512H53.2135L54.1815 30.9H54.4455V33H54.1855V31.224L54.2375 31.248L53.3335 32.744H53.2055L52.2935 31.232L52.3535 31.22V33H52.0935ZM55.2536 33V30.9H57.1416V33H56.8576V31.072L56.9296 31.148H55.4656L55.5376 31.072V33H55.2536ZM59.2529 33V32.536L59.2409 32.46V31.684C59.2409 31.5053 59.1903 31.368 59.0889 31.272C58.9903 31.176 58.8423 31.128 58.6449 31.128C58.5089 31.128 58.3796 31.1507 58.2569 31.196C58.1343 31.2413 58.0303 31.3013 57.9449 31.376L57.8169 31.164C57.9236 31.0733 58.0516 31.004 58.2009 30.956C58.3503 30.9053 58.5076 30.88 58.6729 30.88C58.9449 30.88 59.1543 30.948 59.3009 31.084C59.4503 31.2173 59.5249 31.4213 59.5249 31.696V33H59.2529ZM58.5289 33.02C58.3716 33.02 58.2343 32.9947 58.1169 32.944C58.0023 32.8907 57.9143 32.8187 57.8529 32.728C57.7916 32.6347 57.7609 32.528 57.7609 32.408C57.7609 32.2987 57.7863 32.2 57.8369 32.112C57.8903 32.0213 57.9756 31.9493 58.0929 31.896C58.2129 31.84 58.3729 31.812 58.5729 31.812H59.2969V32.024H58.5809C58.3783 32.024 58.2369 32.06 58.1569 32.132C58.0796 32.204 58.0409 32.2933 58.0409 32.4C58.0409 32.52 58.0876 32.616 58.1809 32.688C58.2743 32.76 58.4049 32.796 58.5729 32.796C58.7329 32.796 58.8703 32.76 58.9849 32.688C59.1023 32.6133 59.1876 32.5067 59.2409 32.368L59.3049 32.564C59.2516 32.7027 59.1583 32.8133 59.0249 32.896C58.8943 32.9787 58.7289 33.02 58.5289 33.02ZM60.281 33V30.9H60.565V31.828H61.889V30.9H62.173V33H61.889V32.072H60.565V33H60.281ZM62.9802 33V30.9H63.2642V32.568L64.6682 30.9H64.9202V33H64.6362V31.328L63.2362 33H62.9802ZM67.0901 33V32.244L67.1421 32.304H66.4301C66.1607 32.304 65.9501 32.2453 65.7981 32.128C65.6461 32.0107 65.5701 31.84 65.5701 31.616C65.5701 31.376 65.6514 31.1973 65.8141 31.08C65.9767 30.96 66.1941 30.9 66.4661 30.9H67.3501V33H67.0901ZM65.5541 33L66.1301 32.192H66.4261L65.8621 33H65.5541ZM67.0901 32.16V31.064L67.1421 31.148H66.4741C66.2794 31.148 66.1274 31.1853 66.0181 31.26C65.9114 31.3347 65.8581 31.456 65.8581 31.624C65.8581 31.936 66.0567 32.092 66.4541 32.092H67.1421L67.0901 32.16Z" fill="white"/>
<path d="M32 16L42.5 13L53 16" stroke="white"/>
<defs>
<filter id="filter0_d_0_948" x="0" y="0" width="84" height="45" filterUnits="userSpaceOnUse" color-interpolation-filters="sRGB">
<feFlood flood-opacity="0" result="BackgroundImageFix"/>
<feColorMatrix in="SourceAlpha" type="matrix" values="0 0 0 0 0 0 0 0 0 0 0 0 0 0 0 0 0 0 127 0" result="hardAlpha"/>
<feOffset/>
<feGaussianBlur stdDeviation="2"/>
<feComposite in2="hardAlpha" operator="out"/>
<feColorMatrix type="matrix" values="0 0 0 0 0 0 0 0 0 0 0 0 0 0 0 0 0 0 0.15 0"/>
<feBlend mode="normal" in2="BackgroundImageFix" result="effect1_dropShadow_0_948"/>
<feBlend mode="normal" in="SourceGraphic" in2="effect1_dropShadow_0_948" result="shape"/>
</filter>
</defs>
</svg>
