<svg width="136" height="20" viewBox="0 0 136 20" fill="none" xmlns="http://www.w3.org/2000/svg">
<path d="M7.46403 19.24C6.15203 19.24 4.89603 19.056 3.69603 18.688C2.49603 18.304 1.54403 17.816 0.840027 17.224L1.92003 14.8C2.59203 15.328 3.42403 15.768 4.41603 16.12C5.40803 16.472 6.42403 16.648 7.46403 16.648C8.34403 16.648 9.05603 16.552 9.60003 16.36C10.144 16.168 10.544 15.912 10.8 15.592C11.056 15.256 11.184 14.88 11.184 14.464C11.184 13.952 11 13.544 10.632 13.24C10.264 12.92 9.78403 12.672 9.19203 12.496C8.61603 12.304 7.96803 12.128 7.24803 11.968C6.54403 11.808 5.83203 11.624 5.11203 11.416C4.40803 11.192 3.76003 10.912 3.16803 10.576C2.59203 10.224 2.12003 9.75998 1.75203 9.18398C1.38403 8.60798 1.20003 7.87198 1.20003 6.97598C1.20003 6.06398 1.44003 5.23198 1.92003 4.47998C2.41603 3.71198 3.16003 3.10398 4.15203 2.65598C5.16003 2.19198 6.43203 1.95998 7.96803 1.95998C8.97603 1.95998 9.97603 2.08798 10.968 2.34399C11.96 2.59998 12.824 2.96798 13.56 3.44799L12.576 5.87198C11.824 5.42398 11.048 5.09598 10.248 4.88799C9.44803 4.66398 8.68003 4.55198 7.94403 4.55198C7.08003 4.55198 6.37603 4.65598 5.83203 4.86398C5.30403 5.07198 4.91203 5.34398 4.65603 5.67999C4.41603 6.01598 4.29603 6.39998 4.29603 6.83198C4.29603 7.34398 4.47203 7.75998 4.82403 8.07998C5.19203 8.38398 5.66403 8.62398 6.24003 8.79998C6.83203 8.97598 7.48803 9.15198 8.20803 9.32798C8.92803 9.48799 9.64003 9.67199 10.344 9.87998C11.064 10.088 11.712 10.36 12.288 10.696C12.88 11.032 13.352 11.488 13.704 12.064C14.072 12.64 14.256 13.368 14.256 14.248C14.256 15.144 14.008 15.976 13.512 16.744C13.032 17.496 12.288 18.104 11.28 18.568C10.272 19.016 9.00003 19.24 7.46403 19.24Z" fill="#0069FF"/>
<path d="M22.8218 19.168C21.5098 19.168 20.3418 18.888 19.3178 18.328C18.2938 17.752 17.4858 16.968 16.8938 15.976C16.3018 14.984 16.0058 13.856 16.0058 12.592C16.0058 11.312 16.3018 10.184 16.8938 9.20798C17.4858 8.21598 18.2938 7.43998 19.3178 6.87999C20.3418 6.31998 21.5098 6.03998 22.8218 6.03998C24.1498 6.03998 25.3258 6.31998 26.3498 6.87999C27.3898 7.43998 28.1978 8.20798 28.7738 9.18398C29.3658 10.16 29.6618 11.296 29.6618 12.592C29.6618 13.856 29.3658 14.984 28.7738 15.976C28.1978 16.968 27.3898 17.752 26.3498 18.328C25.3258 18.888 24.1498 19.168 22.8218 19.168ZM22.8218 16.6C23.5578 16.6 24.2138 16.44 24.7898 16.12C25.3658 15.8 25.8138 15.336 26.1338 14.728C26.4698 14.12 26.6378 13.408 26.6378 12.592C26.6378 11.76 26.4698 11.048 26.1338 10.456C25.8138 9.84798 25.3658 9.38398 24.7898 9.06398C24.2138 8.74398 23.5658 8.58398 22.8458 8.58398C22.1098 8.58398 21.4538 8.74398 20.8778 9.06398C20.3178 9.38398 19.8698 9.84798 19.5338 10.456C19.1978 11.048 19.0298 11.76 19.0298 12.592C19.0298 13.408 19.1978 14.12 19.5338 14.728C19.8698 15.336 20.3178 15.8 20.8778 16.12C21.4538 16.44 22.1018 16.6 22.8218 16.6Z" fill="#0069FF"/>
<path d="M32.5305 19V1.19198H35.5305V19H32.5305Z" fill="#0069FF"/>
<path d="M39.468 19V6.18398H42.468V19H39.468ZM40.98 4.07198C40.42 4.07198 39.956 3.89598 39.588 3.54398C39.236 3.19198 39.06 2.76798 39.06 2.27198C39.06 1.75998 39.236 1.33598 39.588 0.999984C39.956 0.647985 40.42 0.471985 40.98 0.471985C41.54 0.471985 41.996 0.639985 42.348 0.975984C42.716 1.29598 42.9 1.70398 42.9 2.19998C42.9 2.72798 42.724 3.17598 42.372 3.54398C42.02 3.89598 41.556 4.07198 40.98 4.07198Z" fill="#0069FF"/>
<path d="M51.8295 19.168C50.5975 19.168 49.4855 18.896 48.4935 18.352C47.5175 17.792 46.7495 17.024 46.1895 16.048C45.6295 15.072 45.3495 13.92 45.3495 12.592C45.3495 11.264 45.6295 10.112 46.1895 9.13598C46.7495 8.15998 47.5175 7.39998 48.4935 6.85598C49.4855 6.31198 50.5975 6.03998 51.8295 6.03998C52.9015 6.03998 53.8615 6.27998 54.7095 6.75998C55.5575 7.22398 56.2295 7.93598 56.7255 8.89598C57.2215 9.85598 57.4695 11.088 57.4695 12.592C57.4695 14.08 57.2295 15.312 56.7495 16.288C56.2695 17.248 55.6055 17.968 54.7575 18.448C53.9095 18.928 52.9335 19.168 51.8295 19.168ZM52.1895 16.6C52.9095 16.6 53.5495 16.44 54.1095 16.12C54.6855 15.8 55.1415 15.336 55.4775 14.728C55.8295 14.12 56.0055 13.408 56.0055 12.592C56.0055 11.76 55.8295 11.048 55.4775 10.456C55.1415 9.84798 54.6855 9.38398 54.1095 9.06398C53.5495 8.74398 52.9095 8.58398 52.1895 8.58398C51.4695 8.58398 50.8215 8.74398 50.2455 9.06398C49.6855 9.38398 49.2295 9.84798 48.8775 10.456C48.5415 11.048 48.3735 11.76 48.3735 12.592C48.3735 13.408 48.5415 14.12 48.8775 14.728C49.2295 15.336 49.6855 15.8 50.2455 16.12C50.8215 16.44 51.4695 16.6 52.1895 16.6ZM56.0775 19V15.976L56.1975 12.568L55.9575 9.15998V1.19198H58.9335V19H56.0775Z" fill="#0069FF"/>
<path d="M74.9781 2.19998H78.0981V19H74.9781V2.19998ZM66.2901 19H63.1701V2.19998H66.2901V19ZM75.2181 11.8H66.0261V9.13598H75.2181V11.8Z" fill="#0069FF"/>
<path d="M88.0718 19.168C86.7598 19.168 85.5918 18.888 84.5678 18.328C83.5438 17.752 82.7358 16.968 82.1438 15.976C81.5518 14.984 81.2558 13.856 81.2558 12.592C81.2558 11.312 81.5518 10.184 82.1438 9.20798C82.7358 8.21598 83.5438 7.43998 84.5678 6.87999C85.5918 6.31998 86.7598 6.03998 88.0718 6.03998C89.3998 6.03998 90.5758 6.31998 91.5998 6.87999C92.6398 7.43998 93.4478 8.20798 94.0238 9.18398C94.6158 10.16 94.9118 11.296 94.9118 12.592C94.9118 13.856 94.6158 14.984 94.0238 15.976C93.4478 16.968 92.6398 17.752 91.5998 18.328C90.5758 18.888 89.3998 19.168 88.0718 19.168ZM88.0718 16.6C88.8078 16.6 89.4638 16.44 90.0398 16.12C90.6158 15.8 91.0638 15.336 91.3838 14.728C91.7198 14.12 91.8878 13.408 91.8878 12.592C91.8878 11.76 91.7198 11.048 91.3838 10.456C91.0638 9.84798 90.6158 9.38398 90.0398 9.06398C89.4638 8.74398 88.8158 8.58398 88.0958 8.58398C87.3598 8.58398 86.7038 8.74398 86.1278 9.06398C85.5678 9.38398 85.1198 9.84798 84.7838 10.456C84.4478 11.048 84.2798 11.76 84.2798 12.592C84.2798 13.408 84.4478 14.12 84.7838 14.728C85.1198 15.336 85.5678 15.8 86.1278 16.12C86.7038 16.44 87.3518 16.6 88.0718 16.6Z" fill="#0069FF"/>
<path d="M113.957 6.03998C114.981 6.03998 115.885 6.23998 116.669 6.63998C117.469 7.03998 118.093 7.65598 118.541 8.48798C118.989 9.30398 119.213 10.36 119.213 11.656V19H116.213V12.04C116.213 10.904 115.965 10.056 115.469 9.49599C114.973 8.93599 114.261 8.65598 113.333 8.65598C112.677 8.65598 112.093 8.79998 111.581 9.08799C111.085 9.37599 110.693 9.79999 110.405 10.36C110.133 10.92 109.997 11.632 109.997 12.496V19H106.997V12.04C106.997 10.904 106.749 10.056 106.253 9.49599C105.757 8.93599 105.045 8.65598 104.117 8.65598C103.461 8.65598 102.877 8.79998 102.365 9.08799C101.869 9.37599 101.477 9.79999 101.189 10.36C100.917 10.92 100.781 11.632 100.781 12.496V19H97.7805V6.18398H100.637V9.59198L100.133 8.58398C100.565 7.75198 101.189 7.11998 102.005 6.68798C102.837 6.25598 103.781 6.03998 104.837 6.03998C106.037 6.03998 107.077 6.33598 107.957 6.92798C108.853 7.51998 109.445 8.41598 109.733 9.61598L108.557 9.20798C108.973 8.24798 109.661 7.47998 110.621 6.90399C111.581 6.32798 112.693 6.03998 113.957 6.03998Z" fill="#0069FF"/>
<path d="M129.094 19.168C127.67 19.168 126.422 18.888 125.35 18.328C124.294 17.752 123.47 16.968 122.878 15.976C122.302 14.984 122.014 13.856 122.014 12.592C122.014 11.312 122.294 10.184 122.854 9.20798C123.43 8.21598 124.214 7.43998 125.206 6.87999C126.214 6.31998 127.358 6.03998 128.638 6.03998C129.886 6.03998 130.998 6.31198 131.974 6.85598C132.95 7.39998 133.718 8.16798 134.278 9.15998C134.838 10.152 135.118 11.32 135.118 12.664C135.118 12.792 135.11 12.936 135.094 13.096C135.094 13.256 135.086 13.408 135.07 13.552H124.39V11.56H133.486L132.31 12.184C132.326 11.448 132.174 10.8 131.854 10.24C131.534 9.67998 131.094 9.23998 130.534 8.91998C129.99 8.59998 129.358 8.43998 128.638 8.43998C127.902 8.43998 127.254 8.59998 126.694 8.91998C126.15 9.23998 125.718 9.68798 125.398 10.264C125.094 10.824 124.942 11.488 124.942 12.256V12.736C124.942 13.504 125.118 14.184 125.47 14.776C125.822 15.368 126.318 15.824 126.958 16.144C127.598 16.464 128.334 16.624 129.166 16.624C129.886 16.624 130.534 16.512 131.11 16.288C131.686 16.064 132.198 15.712 132.646 15.232L134.254 17.08C133.678 17.752 132.95 18.272 132.07 18.64C131.206 18.992 130.214 19.168 129.094 19.168Z" fill="#0069FF"/>
</svg>
