<svg width="19" height="20" viewBox="0 0 19 20" fill="none" xmlns="http://www.w3.org/2000/svg">
<path d="M13.476 12.9168L18.2754 17.493L17.3462 18.379L12.5123 13.7699L12.2033 13.4754L11.864 13.7342C11.3198 14.1493 10.6892 14.4817 9.96758 14.7287C9.25528 14.9726 8.49325 15.096 7.67834 15.096C5.65441 15.096 3.96382 14.4327 2.5753 13.1088C1.18697 11.785 0.5 10.1836 0.5 8.27482C0.5 6.36599 1.18697 4.76464 2.5753 3.44088C3.96382 2.11695 5.65441 1.45361 7.67834 1.45361C9.70217 1.45361 11.3932 2.11689 12.7825 3.44079C14.17 4.76452 14.8567 6.36591 14.8567 8.27482C14.8567 9.04402 14.7286 9.76309 14.4753 10.4358C14.2183 11.1185 13.8719 11.7163 13.438 12.2335L13.1364 12.593L13.476 12.9168ZM11.7892 12.2276L11.7894 12.2273C12.9199 11.1486 13.4941 9.82162 13.4941 8.27482C13.4941 6.72802 12.9199 5.40105 11.7894 4.32231L11.7892 4.32205C10.6587 3.24502 9.27854 2.70629 7.67834 2.70629C6.07814 2.70629 4.69794 3.24502 3.56751 4.32205L3.56723 4.32231C2.43673 5.40105 1.86257 6.72802 1.86257 8.27482C1.86257 9.82162 2.43673 11.1486 3.56723 12.2273L3.56751 12.2276C4.69794 13.3046 6.07814 13.8433 7.67834 13.8433C9.27854 13.8433 10.6587 13.3046 11.7892 12.2276Z" fill="#0069FF"/>
<path d="M13.476 12.9168L18.2754 17.493L17.3462 18.379L12.5123 13.7699L12.2033 13.4754L11.864 13.7342C11.3198 14.1493 10.6892 14.4817 9.96758 14.7287C9.25528 14.9726 8.49325 15.096 7.67834 15.096C5.65441 15.096 3.96382 14.4327 2.5753 13.1088C1.18697 11.785 0.5 10.1836 0.5 8.27482C0.5 6.36599 1.18697 4.76464 2.5753 3.44088C3.96382 2.11695 5.65441 1.45361 7.67834 1.45361C9.70217 1.45361 11.3932 2.11689 12.7825 3.44079C14.17 4.76452 14.8567 6.36591 14.8567 8.27482C14.8567 9.04402 14.7286 9.76309 14.4753 10.4358C14.2183 11.1185 13.8719 11.7163 13.438 12.2335L13.1364 12.593L13.476 12.9168ZM11.7892 12.2276L11.7894 12.2273C12.9199 11.1486 13.4941 9.82162 13.4941 8.27482C13.4941 6.72802 12.9199 5.40105 11.7894 4.32231L11.7892 4.32205C10.6587 3.24502 9.27854 2.70629 7.67834 2.70629C6.07814 2.70629 4.69794 3.24502 3.56751 4.32205L3.56723 4.32231C2.43673 5.40105 1.86257 6.72802 1.86257 8.27482C1.86257 9.82162 2.43673 11.1486 3.56723 12.2273L3.56751 12.2276C4.69794 13.3046 6.07814 13.8433 7.67834 13.8433C9.27854 13.8433 10.6587 13.3046 11.7892 12.2276Z" stroke="black"/>
<path d="M13.476 12.9168L18.2754 17.493L17.3462 18.379L12.5123 13.7699L12.2033 13.4754L11.864 13.7342C11.3198 14.1493 10.6892 14.4817 9.96758 14.7287C9.25528 14.9726 8.49325 15.096 7.67834 15.096C5.65441 15.096 3.96382 14.4327 2.5753 13.1088C1.18697 11.785 0.5 10.1836 0.5 8.27482C0.5 6.36599 1.18697 4.76464 2.5753 3.44088C3.96382 2.11695 5.65441 1.45361 7.67834 1.45361C9.70217 1.45361 11.3932 2.11689 12.7825 3.44079C14.17 4.76452 14.8567 6.36591 14.8567 8.27482C14.8567 9.04402 14.7286 9.76309 14.4753 10.4358C14.2183 11.1185 13.8719 11.7163 13.438 12.2335L13.1364 12.593L13.476 12.9168ZM11.7892 12.2276L11.7894 12.2273C12.9199 11.1486 13.4941 9.82162 13.4941 8.27482C13.4941 6.72802 12.9199 5.40105 11.7894 4.32231L11.7892 4.32205C10.6587 3.24502 9.27854 2.70629 7.67834 2.70629C6.07814 2.70629 4.69794 3.24502 3.56751 4.32205L3.56723 4.32231C2.43673 5.40105 1.86257 6.72802 1.86257 8.27482C1.86257 9.82162 2.43673 11.1486 3.56723 12.2273L3.56751 12.2276C4.69794 13.3046 6.07814 13.8433 7.67834 13.8433C9.27854 13.8433 10.6587 13.3046 11.7892 12.2276Z" stroke="black" stroke-opacity="0.2"/>
<path d="M13.476 12.9168L18.2754 17.493L17.3462 18.379L12.5123 13.7699L12.2033 13.4754L11.864 13.7342C11.3198 14.1493 10.6892 14.4817 9.96758 14.7287C9.25528 14.9726 8.49325 15.096 7.67834 15.096C5.65441 15.096 3.96382 14.4327 2.5753 13.1088C1.18697 11.785 0.5 10.1836 0.5 8.27482C0.5 6.36599 1.18697 4.76464 2.5753 3.44088C3.96382 2.11695 5.65441 1.45361 7.67834 1.45361C9.70217 1.45361 11.3932 2.11689 12.7825 3.44079C14.17 4.76452 14.8567 6.36591 14.8567 8.27482C14.8567 9.04402 14.7286 9.76309 14.4753 10.4358C14.2183 11.1185 13.8719 11.7163 13.438 12.2335L13.1364 12.593L13.476 12.9168ZM11.7892 12.2276L11.7894 12.2273C12.9199 11.1486 13.4941 9.82162 13.4941 8.27482C13.4941 6.72802 12.9199 5.40105 11.7894 4.32231L11.7892 4.32205C10.6587 3.24502 9.27854 2.70629 7.67834 2.70629C6.07814 2.70629 4.69794 3.24502 3.56751 4.32205L3.56723 4.32231C2.43673 5.40105 1.86257 6.72802 1.86257 8.27482C1.86257 9.82162 2.43673 11.1486 3.56723 12.2273L3.56751 12.2276C4.69794 13.3046 6.07814 13.8433 7.67834 13.8433C9.27854 13.8433 10.6587 13.3046 11.7892 12.2276Z" stroke="black" stroke-opacity="0.2"/>
</svg>
